<?xml version="1.0" encoding="utf-8"?>
<svg xmlns="http://www.w3.org/2000/svg" baseProfile="basic" viewBox="0 0 336 335">
  <linearGradient id="g" x1="428.098" x2="433.986" y1="401.257" y2="406.957" gradientUnits="userSpaceOnUse" gradientTransform="matrix(94.045 0 0 -94.072 -40381.527 38194.305)">
    <stop offset="0" stop-color="#00AEFF"/>
    <stop offset="1" stop-color="#3369E7"/>
  </linearGradient>
  <path d="M46.8 2.4h242.8c23.9 0 43.4 19.4 43.4 43.4v242.9c0 23.9-19.4 43.4-43.4 43.4H46.8c-23.9 0-43.4-19.4-43.4-43.4v-243c0-23.9 19.4-43.3 43.4-43.3z" fill="url(#g)"/>
  <path d="M172 85.7c-51.4 0-93.1 41.7-93.1 93.2S120.6 272 172 272s93.1-41.7 93.1-93.2-41.6-93.1-93.1-93.1zm0 158.8c-36.2 0-65.6-29.4-65.6-65.6s29.4-65.6 65.6-65.6 65.6 29.4 65.6 65.6-29.3 65.6-65.6 65.6zm0-117.8v48.9c0 1.4 1.5 2.4 2.8 1.7l43.4-22.5c1-.5 1.3-1.7.8-2.7-9-15.8-25.7-26.6-45-27.3-1 0-2 .8-2 1.9zm-60.8-35.9l-5.7-5.7c-5.6-5.6-14.6-5.6-20.2 0l-6.8 6.8c-5.6 5.6-5.6 14.6 0 20.2l5.6 5.6c.9.9 2.2.7 3-.2 3.3-4.5 6.9-8.8 10.9-12.8 4.1-4.1 8.3-7.7 12.9-11 1-.6 1.1-2 .3-2.9zM202.5 76V64.7c0-7.9-6.4-14.3-14.3-14.3h-33.3c-7.9 0-14.3 6.4-14.3 14.3v11.6c0 1.3 1.2 2.2 2.5 1.9 9.3-2.7 19.1-4.1 29-4.1 9.5 0 18.9 1.3 28 3.8 1.2.3 2.4-.6 2.4-1.9z" fill="#FFFFFF"/>
</svg>
