<svg width="500" height="200" xmlns="http://www.w3.org/2000/svg"><g fill="none" fill-rule="evenodd"><path d="M210.098 137.25c-5.286 3.117-11.159 4.75-18.355 4.75C171.041 142 159 127.455 159 102.816c0-17.514 6.608-29.09 15.417-35.176 4.993-3.414 12.335-5.64 18.648-5.64 4.993 0 10.426 1.187 14.538 3.414 2.789 1.484 4.11 2.523 7.341 5.343L205.4 83.818c-3.965-3.71-8.223-5.937-11.894-5.937-8.81 0-12.775 7.718-12.775 25.529 0 9.944 1.322 15.881 3.818 19.147 2.056 2.671 5.432 4.304 8.81 4.304 4.552 0 8.663-1.93 13.51-6.234l1.174-1.039L217 131.61c-2.938 2.969-4.258 4.008-6.902 5.64m49.492-55.575c-1.907-2.52-4.993-4.001-8.517-4.001-4.7 0-8.519 2.964-10.134 7.707-1.321 4.002-2.056 9.338-2.056 16.897 0 8.745.882 15.266 2.496 19.12 1.764 4.15 6.17 6.225 9.987 6.225 8.519 0 12.19-7.707 12.19-25.642 0-10.227-1.32-16.897-3.965-20.306zm16.01 49.802C269.872 137.998 262.382 142 250.78 142c-20.415 0-33.78-15.415-33.78-39.278S230.512 63 250.779 63c10.722 0 19.093 3.705 25.556 11.413 6.02 7.114 8.665 15.414 8.665 27.716 0 13.044-2.938 21.937-9.4 29.348zM341.926 143c-2.52-1.781-4.593-4.304-5.927-7.421-4.889 4.75-12 7.273-20 7.273-10.666 0-19.85-5.047-22.37-12.32-1.185-3.413-1.629-7.422-1.629-15.139V66.711L311.555 63v48.831c0 6.828.592 10.39 1.63 12.468 1.037 2.078 4 3.561 6.962 3.561 4.89 0 10.815-3.561 12.297-7.272V67.156l18.963-4.008v58.034c0 5.046 1.63 10.241 4.593 13.803L341.926 143m64.401-57.466c-1.49-4.151-4.616-6.375-9.53-6.375-4.913 0-9.677 2.076-13.25 5.782v36.913c2.68 2.224 6.997 4.448 11.017 4.448 9.827 0 13.698-6.671 13.698-24.016 0-7.264-.596-13.046-1.935-16.752zm13.102 47.884c-5.211 5.485-12.061 8.598-20.398 8.598-5.955 0-11.613-1.482-15.931-4.003.298 1.78.298 4.003.298 6.227v23.72L364.19 173V85.237c0-9.932-.149-12.75-1.191-19.124L380.718 63c.744 2.668 1.19 4.744 1.34 7.116 3.424-4.151 11.018-7.116 18.76-7.116 5.36 0 10.869 1.779 15.038 4.596C424.044 73.08 430 82.866 430 100.358c0 16.308-2.68 24.61-10.571 33.06zm53.209-26.303c-13.755 0-18.488 2.508-18.488 11.508 0 5.902 3.698 9.885 8.727 9.885 3.697 0 7.395-1.918 10.353-5.164l.296-16.23h-.888zM489.5 144c-4.585-1.918-8.728-5.311-10.65-9.148-1.479 1.475-3.106 2.951-4.585 3.984-3.697 2.656-9.022 4.131-15.234 4.131-16.86 0-26.031-8.557-26.031-23.606 0-17.705 12.276-25.968 36.385-25.968 1.479 0 2.81 0 4.437.148v-3.098c0-8.41-1.627-11.213-8.875-11.213-6.36 0-13.755 3.098-21.89 8.557l-8.43-14.164c3.993-2.508 6.951-3.984 12.276-6.197C454.298 64.328 460.658 63 467.61 63c12.72 0 21.446 4.721 24.404 13.131 1.035 3.099 1.48 5.46 1.331 13.574l-.444 25.377c-.147 8.262.444 11.803 7.099 16.819L489.5 144zM114.408 92.634a126.912 126.912 0 0 0-7.46-3.286c2.428-.49 4.9-1.069 7.381-1.752 17.156-4.686 28.047-12.037 25.408-16.54-2.543-4.353-17.05-4.835-33.38-.998a107.394 107.394 0 0 0-6.826 1.83 74.51 74.51 0 0 0 3.29-5.212c6.907-12.072 8.208-22.426 3.687-24.354-4.496-1.918-13.796 4.836-21.625 16.208a68.364 68.364 0 0 0-3.22 5.115 71.801 71.801 0 0 0-1.83-5.686c-4.725-12.868-12.194-21.699-17.19-20.91-5.096.796-6.511 11.388-2.728 24.923a76.257 76.257 0 0 0 1.926 5.878 106.347 106.347 0 0 0-6.405-3.312c-15.783-7.515-31.249-10.407-35.191-6.561-4.1 4.013 5.56 13.964 22.32 22.365a111.99 111.99 0 0 0 7.135 3.286c-2.745.481-5.613 1.06-8.577 1.76C18.935 90.61-.183 100.09 0 106.449c.203 6.65 21.194 6.58 45.045.07a150.718 150.718 0 0 0 9.062-2.768 142.592 142.592 0 0 0-5.526 7.517c-14.585 21.182-22.927 44.502-16.1 48.61 6.951 4.163 25.057-14.06 38.105-36.863a137.687 137.687 0 0 0 4.416-8.356 134.81 134.81 0 0 0 2.155 8.909c6.784 24.204 19.356 44.23 26.834 41.112 7.293-3.031 5.384-26.29-2.878-48.778a131.775 131.775 0 0 0-3.299-8.156 124.864 124.864 0 0 0 7.77 4.222c20.12 10.101 38.542 13.465 40.285 7.377 1.662-5.808-12.767-17.81-31.462-26.71" fill="#4DAED6"/><path d="M61 100a119.183 119.183 0 0 1-6.904 2.05c-7.207 1.908-14.044 3.036-19.707 3.395-16.569 12.588-28.081 26.319-24.842 31.58 3.22 5.245 19.38-.408 36.819-11.653 2.185-5.932 5.85-12.943 10.531-19.782A104.47 104.47 0 0 1 61 100m-5-15.553a91.834 91.834 0 0 1-5.656-2.666c-5.484-2.817-10.044-5.863-13.325-8.715-16.809-.533-30.79 2.194-32.778 7.017C2.237 84.936 12.94 90.227 29.2 93c5.426-2.685 12.492-5.239 20.148-7.122 2.287-.564 4.514-1.04 6.651-1.431M64 72a63.502 63.502 0 0 1-1.543-4.763c-1.287-4.601-1.87-8.82-1.842-12.244-8.906-8.114-17.735-12.508-21.613-10.517-3.846 1.97-2.019 9.734 4.355 19.082 4.615 1.032 10.123 3.008 15.714 5.781A81.833 81.833 0 0 1 64 72m31 3a89.62 89.62 0 0 1 5.543-1.512c5.454-1.308 10.639-2.009 15.014-2.155 8.78-8.038 12.564-15.477 9.26-18.225-3.112-2.589-11.912-.523-21.884 4.956-.708 3.546-2.449 7.957-5.195 12.659A60.78 60.78 0 0 1 95 75m-19.145 33a102.423 102.423 0 0 1-3.292 6.24c-3.723 6.517-7.956 12.414-12.035 17-1.876 21.721 1.31 40.404 8.53 40.755 6.92.328 13.837-16.353 16.942-36.764-3.192-5.378-6.257-12.601-8.503-20.548A96.331 96.331 0 0 1 75.855 108m5.119-40a60.427 60.427 0 0 1 2.642-4.213c2.698-3.93 5.62-7.215 8.384-9.62-.276-10.325-3.354-17.674-7.62-18.143-4.123-.45-8.661 5.569-11.38 15.005 2.374 3.079 4.687 7.335 6.493 12.313A58.793 58.793 0 0 1 80.974 68m66.988 24.316c-.711-4.385-11.387-8.895-25.55-11.316-3.74 2.219-9.112 4.411-15.53 6.13-1.981.533-3.95.99-5.882 1.374 1.892.764 3.84 1.616 5.818 2.564 5.784 2.762 10.969 5.886 15.033 8.923 15.815.204 26.88-2.931 26.111-7.675M93 103a96.664 96.664 0 0 1 2.484 6.126c2.373 6.493 3.949 12.955 4.673 18.547 14.3 13.809 28.613 21.674 32.756 16.95 3.828-4.368-2.812-17.735-14.321-31.34-5.53-1.184-12.4-3.595-19.53-7.076A103.006 103.006 0 0 1 93 103" fill="#3083B8"/><path d="M122.184 100.076c-4.041-3.035-9.197-6.164-14.948-8.926-1.965-.946-3.9-1.8-5.783-2.567 1.92-.383 3.878-.84 5.847-1.374 6.382-1.72 11.722-3.912 15.44-6.133 4.291-2.56 6.423-5.157 5.394-7.113-1.105-2.098-5.677-3.066-11.953-2.86-4.317.146-9.433.837-14.814 2.132a88.89 88.89 0 0 0-5.47 1.495 58.816 58.816 0 0 0 2.7-4.232c2.711-4.65 4.43-9.013 5.129-12.523.801-4.01.276-6.898-1.676-7.754-2.14-.942-5.67.68-9.515 4.084-2.703 2.4-5.558 5.676-8.195 9.593a60.675 60.675 0 0 0-2.585 4.203 60.114 60.114 0 0 0-1.448-4.646c-1.767-4.963-4.028-9.207-6.35-12.278-2.673-3.545-5.424-5.512-7.593-5.13-2.405.426-3.722 3.677-3.762 8.526-.028 3.424.575 7.64 1.902 12.241a61.41 61.41 0 0 0 1.594 4.761 84.915 84.915 0 0 0-5.09-2.66c-5.772-2.773-11.46-4.749-16.224-5.78-5.636-1.221-9.974-1.122-11.563.59-1.786 1.927.251 5.485 4.92 9.433 3.24 2.744 7.74 5.674 13.154 8.386a90.212 90.212 0 0 0 5.585 2.562c-2.11.377-4.309.838-6.567 1.379-7.559 1.812-14.534 4.27-19.891 6.854-6.542 3.158-10.666 6.51-10.41 9.126.29 2.945 6.008 4.124 14.329 3.584 5.59-.36 12.342-1.49 19.459-3.409 2.38-.642 4.662-1.335 6.819-2.064a105.84 105.84 0 0 0-4.054 5.62c-4.621 6.872-8.241 13.918-10.4 19.881-2.684 7.414-3.1 13.148-.307 14.744 3.09 1.77 9.019-2.13 15.32-9.085 4.104-4.524 8.362-10.336 12.105-16.763a99.832 99.832 0 0 0 3.31-6.151c.446 2.11.996 4.312 1.653 6.59 2.26 7.834 5.34 14.956 8.551 20.258 3.94 6.505 8.072 10.267 11.12 9.128 3.287-1.22 4.212-7.764 3.127-16.391-.707-5.596-2.245-12.063-4.56-18.56a97.108 97.108 0 0 0-2.42-6.134 98.82 98.82 0 0 0 5.91 3.212c6.953 3.485 13.652 5.897 19.044 7.08 6.403 1.4 10.96 1.056 11.834-1.394.93-2.614-2.6-6.97-8.668-11.535" fill="#FFFFFE"/></g></svg>