<?xml version="1.0" encoding="utf-8"?>
<svg xmlns="http://www.w3.org/2000/svg" width="408" height="78" viewBox="0 0 408 78" class="logo__l2u5SYnO4"><g fill="none" fill-rule="evenodd"><path fill="#FF8188" d="M31.9996 6.831C31.9996 10.598 35.0636 13.662 38.8306 13.662 42.5976 13.662 45.6616 10.598 45.6616 6.831 45.6616 3.064 42.5976 0 38.8306 0 35.0636 0 31.9996 3.064 31.9996 6.831zM9.439 16.2704C9.439 20.0374 12.503 23.1014 16.27 23.1014 20.037 23.1014 23.101 20.0374 23.101 16.2704 23.101 12.5034 20.037 9.4394 16.27 9.4394 12.503 9.4394 9.439 12.5034 9.439 16.2704zM-.0004 38.831C-.0004 42.598 3.0636 45.662 6.8306 45.662 10.5976 45.662 13.6616 42.598 13.6616 38.831 13.6616 35.064 10.5976 32 6.8306 32 3.0636 32-.0004 35.064-.0004 38.831zM54.5611 16.2704C54.5611 20.0374 57.6241 23.1014 61.3911 23.1014 65.1581 23.1014 68.2221 20.0374 68.2221 16.2704 68.2221 12.5034 65.1581 9.4394 61.3911 9.4394 57.6241 9.4394 54.5611 12.5034 54.5611 16.2704zM63.9996 38.831C63.9996 42.598 67.0636 45.662 70.8306 45.662 74.5976 45.662 77.6616 42.598 77.6616 38.831 77.6616 35.064 74.5976 32 70.8306 32 67.0636 32 63.9996 35.064 63.9996 38.831zM31.9996 70.8867C31.9996 74.6537 35.0636 77.7177 38.8306 77.7177 42.5976 77.7177 45.6616 74.6537 45.6616 70.8867 45.6616 67.1197 42.5976 64.0557 38.8306 64.0557 35.0636 64.0557 31.9996 67.1197 31.9996 70.8867zM54.5611 61.4472C54.5611 65.2142 57.6241 68.2782 61.3911 68.2782 65.1581 68.2782 68.2221 65.2142 68.2221 61.4472 68.2221 57.6802 65.1581 54.6172 61.3911 54.6172 57.6241 54.6172 54.5611 57.6802 54.5611 61.4472zM9.439 61.4472C9.439 65.2142 12.503 68.2782 16.27 68.2782 20.037 68.2782 23.101 65.2142 23.101 61.4472 23.101 57.6802 20.037 54.6172 16.27 54.6172 12.503 54.6172 9.439 57.6802 9.439 61.4472z"></path><path fill="#061B2B" d="M106.1533 64.0498C105.9403 63.7308 105.7293 63.0948 105.7293 62.5648 105.7293 61.0788 107.0023 59.8068 108.4863 59.8068 109.6533 59.8068 110.3953 60.5488 110.7133 61.0788 115.0623 67.7618 119.9423 71.2618 128.0033 71.2618 137.1253 71.2618 144.1263 64.3668 144.1263 51.4268L144.1263 3.7548C144.1263 2.2708 145.3993.9968 146.8833.9968 148.3683.9968 149.6413 2.2708 149.6413 3.7548L149.6413 51.0028C149.6413 59.5938 146.9903 66.1708 142.8533 70.3068 138.9283 74.2328 133.6253 76.2468 127.6853 76.2468 117.3973 76.2468 110.6083 71.1548 106.1533 64.0498M224.5283 48.4023C224.0933 47.4563 206.8493 9.5013 206.4893 8.6963 206.1093 7.8463 205.4213 7.8463 205.0233 8.7033 204.7823 9.2223 187.3823 47.2903 186.8853 48.4103 186.4213 49.4563 186.4743 50.0483 187.7603 50.0483L223.6263 50.0483C224.9683 50.0483 224.9633 49.3483 224.5283 48.4023M170.3333 72.2173L202.0483 3.4843C202.7903 1.8933 203.8513.8333 205.7593.8333L205.9723.8333C207.8823.8333 208.9423 1.8933 209.6853 3.4843L241.2933 72.0053C241.6123 72.6413 241.7173 73.1723 241.7173 73.7033 241.7173 75.0813 240.5503 76.2483 239.0663 76.2483 237.7933 76.2483 236.8393 75.2943 236.3083 74.1263 236.3083 74.1263 228.7603 57.5413 228.3563 56.6703 227.9523 55.7993 227.6393 55.0343 225.9833 55.0343L185.4303 55.0343C183.8593 55.0343 183.4873 55.7683 183.0643 56.6673 182.6403 57.5653 175.1063 74.2323 175.1063 74.2323 174.5753 75.5063 173.7283 76.2483 172.4553 76.2483 171.0753 76.2483 169.9083 75.1873 169.9083 73.9153 169.9083 73.4903 170.0153 72.8533 170.3333 72.2173M265.0293 3.6728C265.0293 2.1878 266.3023.9138 267.7873.9138L268.6353.9138C269.8023.9138 270.6513 1.5508 271.3933 2.5058 271.3933 2.5058 313.3093 55.9318 320.1723 64.7428 320.7983 65.5458 321.4583 65.5548 321.4583 64.7388L321.4583 3.4598C321.4583 1.9748 322.6253.8088 324.1103.8088 325.5953.8088 326.7623 1.9748 326.7623 3.4598L326.7623 73.8088C326.7623 75.0808 325.8073 76.1418 324.5343 76.1418L324.1103 76.1418C323.0503 76.1418 322.2003 75.3998 321.3523 74.3388 321.3523 74.3388 272.3733 11.8738 271.6133 10.9268 270.9873 10.1448 270.3333 10.1448 270.3333 10.9308L270.3333 73.5968C270.3333 75.0808 269.1663 76.2478 267.6823 76.2478 266.1963 76.2478 265.0293 75.0808 265.0293 73.5968L265.0293 3.6728zM354.0601 73.4893L353.9711 3.6663C353.9711 2.1813 355.2441.9083 356.7281.9083L404.6721.9083C406.0521.9083 407.2181 2.0753 407.2181 3.4543 407.2181 4.8323 406.0521 5.9993 404.6721 5.9993L361.1991 5.9993C360.2821 5.9993 359.5721 6.8253 359.5721 7.6353 359.5721 12.3783 359.5771 29.4563 359.5771 34.1893 359.5771 35.1663 360.3411 35.8103 361.2001 35.8363 362.0581 35.8603 399.9881 35.8363 399.9881 35.8363 401.3681 35.8363 402.5351 37.0023 402.5351 38.3823 402.5351 39.7603 401.3681 40.9263 399.9881 40.9263L361.1991 40.9263C360.3051 40.9263 359.5771 41.7553 359.5771 42.5663L359.5771 69.5073C359.5771 70.4713 360.2691 71.1563 361.1991 71.1563L405.2921 71.1563C406.6721 71.1563 407.8381 72.3233 407.8381 73.7023 407.8381 75.0813 406.6721 76.2473 405.2921 76.2473L356.8181 76.2473C355.3331 76.2473 354.0601 74.9743 354.0601 73.4893"></path></g></svg>
