<svg id="Layer_1" xmlns="http://www.w3.org/2000/svg" viewBox="0 0 500 200"><style>.st0{fill:#00b586}.st1{fill:#ccc}</style><path class="st0" d="M233.5 121.6c0 8.5-7.2 12.9-13.8 12.9s-13.3-4.4-13.3-12.9v-40h-24.9v44c0 16.8 14.5 31.1 30.1 31.1s21.9-6.7 21.9-6.7v5.1h24.7V81.6h-24.7v40zm120.1-61.2h24.7v94.7h-24.7V60.4zm33.8 21.2h24.7V155h-24.7V81.6z"/><ellipse transform="rotate(-80.781 399.922 60.41)" class="st0" cx="399.9" cy="60.4" rx="13.9" ry="13.9"/><path class="st0" d="M319.8 87c-17.6-11.2-41-6-52.3 11.6-11.2 17.6-6 41 11.6 52.3 12.4 7.8 28.1 7.8 40.6 0v4.3h24.7V81.6h-24.7V87zm1.4 34.1c-1.3 9.5-10.1 16.3-19.6 15.1-9.5-1.3-16.3-10.1-15.1-19.6 1-7.8 7.2-14.1 15.1-15.1 9.7-1.3 18.5 5.5 19.6 15.2.3 1.4.3 2.9 0 4.4zM178.1 81.6H147L127.1 106V60.6h-24.7v94.6h24.7v-10.9l14.2-17.3 17.6 28.3h28l-29.8-47.7 21-26z"/><path class="st1" d="M425.2 149.9c0-1-.7-1.6-1.7-1.6h-2v4.8h1v-1.8h.6l1.3 1.8h1.1l-1.3-1.8c.6-.1 1-.6 1-1.4zm-1.7.7h-1v-1.4h1c.6 0 .7.3.7.7 0 .4-.3.7-.7.7z"/><path class="st1" d="M423.2 146.5c-2.4 0-4.3 2-4.3 4.3 0 2.4 2 4.3 4.3 4.3 2.4 0 4.3-2 4.3-4.3.1-2.3-1.9-4.3-4.3-4.3zm0 7.8c-1.8 0-3.4-1.6-3.4-3.4 0-1.8 1.6-3.4 3.4-3.4 1.8 0 3.4 1.6 3.4 3.4.2 1.8-1.4 3.4-3.4 3.4z"/></svg>