<svg xmlns="http://www.w3.org/2000/svg" viewBox="0 0 500 142.8"><path fill="#95BF47" d="M107.4 27.2c-.1-.7-.7-1.1-1.2-1.1S95 25.3 95 25.3s-7.4-7.4-8.3-8.2c-.8-.8-2.4-.6-3-.4-.1 0-1.6.5-4.2 1.3C77 10.7 72.6 4.1 64.9 4.1h-.7C62.1 1.3 59.3 0 57 0 39 0 30.4 22.5 27.7 33.9c-7 2.2-12 3.7-12.6 3.9-3.9 1.2-4 1.3-4.5 5C10.2 45.6 0 124.6 0 124.6l79.5 14.9 43.1-9.3c0-.1-15.1-102.3-15.2-103zm-32.3-8c-2 .6-4.3 1.3-6.7 2.1v-1.5c0-4.4-.6-8-1.6-10.9 4 .6 6.6 5.1 8.3 10.3zM61.8 9.9c1.1 2.8 1.8 6.7 1.8 12.1v.8c-4.4 1.4-9.1 2.8-13.9 4.3 2.7-10.3 7.8-15.3 12.1-17.2zm-5.3-5.1c.8 0 1.6.3 2.3.8-5.8 2.7-11.9 9.5-14.5 23.2-3.8 1.2-7.5 2.3-11 3.4 3-10.4 10.3-27.4 23.2-27.4z"/><path fill="#5E8E3E" d="M106.2 26c-.5 0-11.2-.8-11.2-.8s-7.4-7.4-8.3-8.2c-.3-.3-.7-.5-1.1-.5l-6 123 43.1-9.3s-15.1-102.3-15.2-103c-.2-.7-.8-1.1-1.3-1.2z"/><path fill="#FFF" d="M64.9 49.8l-5.3 15.8s-4.7-2.5-10.4-2.5c-8.4 0-8.8 5.3-8.8 6.6 0 7.2 18.8 10 18.8 26.9 0 13.3-8.4 21.9-19.8 21.9-13.7 0-20.6-8.5-20.6-8.5l3.7-12.1s7.2 6.2 13.2 6.2c4 0 5.6-3.1 5.6-5.4 0-9.4-15.4-9.8-15.4-25.3 0-13 9.3-25.6 28.2-25.6 7.2-.1 10.8 2 10.8 2z"/><path d="M172.9 79.5c-4.3-2.3-6.5-4.3-6.5-7 0-3.4 3.1-5.6 7.9-5.6 5.6 0 10.6 2.3 10.6 2.3l3.9-12s-3.6-2.8-14.2-2.8c-14.8 0-25.1 8.5-25.1 20.4 0 6.8 4.8 11.9 11.2 15.6 5.2 2.9 7 5 7 8.1 0 3.2-2.6 5.8-7.4 5.8-7.1 0-13.9-3.7-13.9-3.7l-4.2 12s6.2 4.2 16.7 4.2c15.2 0 26.2-7.5 26.2-21-.1-7.4-5.6-12.5-12.2-16.3zM233.5 54.2c-7.5 0-13.4 3.6-17.9 9l-.2-.1 6.5-34H205l-16.5 86.6h16.9l5.6-29.6c2.2-11.2 8-18.1 13.4-18.1 3.8 0 5.3 2.6 5.3 6.3 0 2.3-.2 5.2-.7 7.5l-6.4 33.9h16.9l6.6-35c.7-3.7 1.2-8.1 1.2-11.1.1-9.7-4.9-15.4-13.8-15.4zM285.7 54.2c-20.4 0-33.9 18.4-33.9 38.9 0 13.1 8.1 23.7 23.3 23.7 20 0 33.5-17.9 33.5-38.9.1-12.2-7-23.7-22.9-23.7zm-8.3 49.6c-5.8 0-8.2-4.9-8.2-11.1 0-9.7 5-25.5 14.2-25.5 6 0 8 5.2 8 10.2 0 10.4-5.1 26.4-14 26.4zM352 54.2c-11.4 0-17.9 10.1-17.9 10.1h-.2l1-9.1h-15c-.7 6.1-2.1 15.5-3.4 22.5l-11.8 62h16.9l4.7-25.1h.4s3.5 2.2 9.9 2.2c19.9 0 32.9-20.4 32.9-41 0-11.4-5.1-21.6-17.5-21.6zM335.8 104c-4.4 0-7-2.5-7-2.5l2.8-15.8c2-10.6 7.5-17.6 13.4-17.6 5.2 0 6.8 4.8 6.8 9.3 0 11-6.5 26.6-16 26.6zM393.7 29.9c-5.4 0-9.7 4.3-9.7 9.8 0 5 3.2 8.5 8 8.5h.2c5.3 0 9.8-3.6 9.9-9.8 0-5-3.3-8.5-8.4-8.5zM370 115.6h16.9l11.5-60.1h-17M441.5 55.4h-11.8l.6-2.8c1-5.8 4.4-10.9 10.1-10.9 3 0 5.4.9 5.4.9l3.3-13.3s-2.9-1.5-9.2-1.5c-6 0-12 1.7-16.6 5.6-5.8 4.9-8.5 12-9.8 19.2l-.5 2.8h-7.9l-2.5 12.8h7.9l-9 47.4h16.9l9-47.4h11.7l2.4-12.8zM482.3 55.5S471.7 82.2 467 96.8h-.2c-.3-4.7-4.2-41.3-4.2-41.3h-17.8l10.2 55.1c.2 1.2.1 2-.4 2.8-2 3.8-5.3 7.5-9.2 10.2-3.2 2.3-6.8 3.8-9.6 4.8l4.7 14.4c3.4-.7 10.6-3.6 16.6-9.2 7.7-7.2 14.9-18.4 22.2-33.6L500 55.5h-17.7z"/></svg>