<svg width="500" height="500" viewBox="0 0 500 500" fill="none" xmlns="http://www.w3.org/2000/svg">
<path fill-rule="evenodd" clip-rule="evenodd" d="M159 256.862L167.088 256.868L291.513 132.444L291.504 124.358L323.883 156.737L315.795 156.729L191.372 281.152L191.379 289.241L159 256.862ZM270.868 116.985L250.656 137.197L236.057 122.598L204.615 154.04L219.214 168.639L199.002 188.851L171.258 161.106V146.967L228.984 89.2412H243.127L270.868 116.985ZM331.256 177.373L311.044 197.586L325.643 212.185L294.201 243.626L279.602 229.027L259.39 249.24L287.135 276.983H301.275L359 219.257V205.115L331.256 177.373Z" fill="#25B894"/>
<path fill-rule="evenodd" clip-rule="evenodd" d="M50.0001 333.396H110.72V345.54H50.0001V333.396Z" fill="#171717"/>
<path d="M398.368 347.817H366.49V359.961H398.368V347.817Z" fill="#171717"/>
<path d="M87.9564 344.781H72.7764V394.117H87.9564V344.781Z" fill="#171717"/>
<path d="M128.933 333.396H115.271V394.116H128.933V333.396Z" fill="#171717"/>
<path d="M235.952 347.817H223.048V394.116H235.952V347.817Z" fill="#171717"/>
<path d="M308.062 333.396H294.4V394.116H308.062V333.396Z" fill="#171717"/>
<path d="M385.48 333.396V380.454C385.48 380.873 385.82 381.213 386.239 381.213H398.383V394.875H386.239C378.275 394.875 371.818 388.419 371.818 380.454V333.396H385.48Z" fill="#171717"/>
<path d="M141.841 347.438C152.111 347.438 160.437 355.763 160.437 366.033V394.116H147.533V366.033C147.533 362.889 144.985 360.341 141.841 360.341H122.866V347.438H141.841Z" fill="#171717"/>
<path d="M200.667 347.438C209.47 347.438 216.606 354.574 216.606 363.377V378.557C216.606 387.36 209.47 394.496 200.667 394.496H183.21C174.407 394.496 167.271 387.36 167.271 378.557V363.377C167.271 354.574 174.407 347.438 183.21 347.438H200.667ZM200.667 359.582H183.21C181.114 359.582 179.415 361.281 179.415 363.377V378.557C179.415 380.653 181.114 382.352 183.21 382.352H200.667C202.763 382.352 204.462 380.653 204.462 378.557V363.377C204.462 361.281 202.763 359.582 200.667 359.582Z" fill="#171717"/>
<path d="M259.098 347.438V359.582H249.231C241.686 359.582 235.569 365.698 235.569 373.244V394.496H223.425V373.244C223.425 358.991 234.979 347.438 249.231 347.438H259.098Z" fill="#171717"/>
<path d="M295.918 347.817V359.961H278.729C276.866 359.961 275.425 361.36 275.425 362.997V378.936C275.425 380.573 276.866 381.972 278.729 381.972H295.918V394.116H278.729C270.236 394.116 263.281 387.36 263.281 378.936V362.997C263.281 354.573 270.236 347.817 278.729 347.817H295.918Z" fill="#171717"/>
<path d="M349.045 347.817C355.752 347.817 361.189 353.254 361.189 359.961V394.116H349.045V359.961H328.552C328.132 359.961 327.793 360.301 327.793 360.72H315.649C315.649 353.594 321.425 347.817 328.552 347.817H349.045Z" fill="#171717"/>
<path d="M437.856 347.817C444.563 347.817 450 353.254 450 359.961V394.116H437.856V359.961H417.363C416.944 359.961 416.604 360.301 416.604 360.72H404.46C404.46 353.594 410.237 347.817 417.363 347.817H437.856Z" fill="#171717"/>
<path d="M350.563 364.515C356.431 364.515 361.189 369.272 361.189 375.141V379.315C361.189 387.489 354.562 394.116 346.388 394.116H326.275C320.406 394.116 315.649 389.358 315.649 383.49V375.141C315.649 369.272 320.406 364.515 326.275 364.515H350.563ZM349.045 376.659H327.793V381.972H346.388C347.806 381.972 348.965 380.86 349.041 379.461L349.045 379.315V376.659Z" fill="#171717"/>
<path d="M439.374 364.515C445.243 364.515 450 369.272 450 375.141V379.315C450 387.489 443.374 394.116 435.2 394.116H415.086C409.217 394.116 404.46 389.358 404.46 383.49V375.141C404.46 369.272 409.217 364.515 415.086 364.515H439.374ZM437.856 376.659H416.604V381.972H435.2C436.618 381.972 437.777 380.86 437.852 379.461L437.856 379.315V376.659Z" fill="#171717"/>
</svg>
