<?xml version="1.0" encoding="utf-8"?>
<!-- Generator: Adobe Illustrator 18.0.0, SVG Export Plug-In . SVG Version: 6.00 Build 0)  -->
<!DOCTYPE svg PUBLIC "-//W3C//DTD SVG 1.1//EN" "http://www.w3.org/Graphics/SVG/1.1/DTD/svg11.dtd">
<svg version="1.1" id="Layer_8" xmlns="http://www.w3.org/2000/svg" xmlns:xlink="http://www.w3.org/1999/xlink" x="0px" y="0px"
	 viewBox="0 0 314.1 345.5" enable-background="new 0 0 314.1 345.5" xml:space="preserve">
<g>
	<path fill="none" d="M207.6,95.6l-20.7,41.8c6.8,6.3,11.6,14.6,13.5,24l15.6,0c1.8-8.9,6.2-16.9,12.5-23.1L207.6,95.6z"/>
	<path fill="none" d="M169.5,127.3l38.1-77l38,77.5c1.5-0.5,3-0.9,4.5-1.3L286.2,20H128.9l36,106.2
		C166.4,126.5,168,126.9,169.5,127.3z"/>
	<path fill="none" d="M156.4,195.4c13.9,0,25.2-11.3,25.2-25.2c0-5.1-1.5-9.8-4.1-13.8c-0.8-1.3-1.8-2.5-2.8-3.6
		c0,0-0.1-0.1-0.1-0.1c-1-1.1-2.2-2.1-3.4-2.9c0,0-0.1-0.1-0.1-0.1c-0.3-0.2-0.7-0.5-1.1-0.7c-0.1,0-0.1-0.1-0.2-0.1
		c-0.4-0.2-0.8-0.5-1.2-0.7c0,0,0,0-0.1,0c-0.4-0.2-0.9-0.5-1.3-0.7c0,0-0.1,0-0.1,0c-0.4-0.2-0.8-0.4-1.2-0.5
		c-0.1,0-0.2-0.1-0.3-0.1c-0.3-0.1-0.7-0.3-1-0.4c-0.1,0-0.2-0.1-0.4-0.1c-0.4-0.1-0.8-0.3-1.2-0.4c-0.1,0-0.1,0-0.1,0
		c-0.5-0.1-0.9-0.2-1.4-0.3c-0.1,0-0.2,0-0.4-0.1c-0.4-0.1-0.7-0.1-1.1-0.2c-0.2,0-0.3,0-0.5-0.1c-0.3,0-0.7-0.1-1-0.1
		c-0.2,0-0.3,0-0.5,0c-0.5,0-1,0-1.5,0c-0.5,0-1,0-1.5,0c-0.1,0-0.3,0-0.4,0c-0.4,0-0.7,0.1-1.1,0.1c-0.1,0-0.2,0-0.4,0
		c-0.4,0.1-0.8,0.1-1.2,0.2c-0.1,0-0.2,0-0.3,0c-0.5,0.1-0.9,0.2-1.4,0.3c-11,2.7-19.2,12.7-19.2,24.5
		C131.2,184,142.5,195.4,156.4,195.4z"/>
	<path fill="none" d="M262.4,145c-0.1,0-0.1,0-0.2,0c-0.4,0-0.7-0.1-1.1-0.1c-0.4,0-0.8,0-1.3,0c-0.5,0-1,0-1.6,0.1
		c-0.2,0-0.3,0-0.5,0c-0.4,0-0.8,0.1-1.2,0.1c-0.1,0-0.3,0-0.4,0.1c-0.5,0.1-1,0.2-1.5,0.3c0,0-0.1,0-0.1,0
		c-0.5,0.1-0.9,0.2-1.4,0.3c-0.1,0-0.3,0.1-0.4,0.1c-0.4,0.1-0.8,0.2-1.2,0.4c-0.1,0-0.2,0.1-0.3,0.1c-0.5,0.2-1,0.4-1.4,0.6
		c0,0,0,0,0,0c-0.5,0.2-0.9,0.4-1.4,0.6c-0.1,0-0.2,0.1-0.3,0.1c-0.4,0.2-0.8,0.4-1.2,0.7c0,0-0.1,0-0.1,0.1
		c-0.9,0.5-1.8,1.1-2.6,1.8c0,0-0.1,0.1-0.1,0.1c-1.3,1-2.4,2.1-3.5,3.3c0,0,0,0,0,0c-1.1,1.2-2,2.6-2.8,4c-2.1,3.7-3.3,8-3.3,12.5
		c0,13.9,11.3,25.2,25.2,25.2c13.9,0,25.2-11.3,25.2-25.2c0-12.2-8.8-22.5-20.3-24.8C264,145.2,263.2,145.1,262.4,145z"/>
	<path fill="none" d="M51.9,195.4c13.9,0,25.2-11.3,25.2-25.2s-11.3-25.2-25.2-25.2s-25.2,11.3-25.2,25.2S38,195.4,51.9,195.4z"/>
	<path fill="none" d="M259.9,214.9c-20.8,0-38.3-14.3-43.3-33.5l-16.8,0c-5,19.2-22.5,33.5-43.3,33.5c-2.4,0-4.7-0.2-6.9-0.5
		c-5.8,8.9-12.7,17.1-20.8,24.7c-14.3,13.5-30.5,23.5-48,29.8l-4.1,1.5l-3.8-2c-21-10.8-31.8-32.7-28-53.9c-2.4-0.4-4.7-1-6.9-1.8
		c-0.4,0.7-0.7,1.5-1.1,2.3c-6.4,13.2-13.1,26.8-15.5,41.4c-2.6,15.6-3.7,44.1,18.3,59.3c9.6,6.6,19.7,9.9,31,9.9
		c21.7,0,45.1-11.6,69.9-23.9c19.4-9.6,39.4-19.6,60.2-24.7c7.9-1.9,15.9-3.1,23.6-4.2c14.1-2,27.5-4,38.4-10.3
		c11.6-6.7,19.5-17.9,21.7-30.7c1.4-7.8,0.6-15.7-2-23C275.9,212.6,268.2,214.9,259.9,214.9z"/>
	<path fill="#FFFFFF" d="M304.6,170.1c0-20.8-14.3-38.3-33.5-43.3L314.1,0H101l43.1,127.2c-18.6,5.4-32.3,22.6-32.3,43
		c0,15,7.5,28.3,18.9,36.5c-4.5,6.4-9.7,12.3-15.6,17.9C104,235,91.7,243,78.4,248.3c-12-8.1-17.2-22.4-12.5-35.2
		c18.3-5.6,31.6-22.7,31.6-42.8c0-24.7-20.1-44.7-44.7-44.7C28.1,125.6,8,145.7,8,170.4c0,12.2,5,23.4,13,31.4
		c-0.7,1.4-1.4,2.8-2.1,4.3C12.2,219.9,4.6,235.5,1.7,253c-5.8,35,3.7,63.1,26.6,79c12.9,8.9,27.1,13.4,42.4,13.4
		c26.3,0,53-13.2,78.8-26c18.4-9.1,37.4-18.6,56.1-23.2c6.9-1.7,14.1-2.7,21.7-3.8c15.4-2.2,31.3-4.5,45.6-12.8
		c16.7-9.7,28.1-25.9,31.4-44.5c2.5-14.3,0-28.7-6.4-41.3C302.2,186.9,304.6,178.8,304.6,170.1z M285.1,170.1
		c0,13.9-11.3,25.2-25.2,25.2c-13.9,0-25.2-11.3-25.2-25.2c0-4.5,1.2-8.8,3.3-12.5c0.8-1.4,1.8-2.8,2.8-4c0,0,0,0,0,0
		c1-1.2,2.2-2.3,3.5-3.3c0,0,0.1-0.1,0.1-0.1c0.8-0.6,1.7-1.2,2.6-1.8c0,0,0.1,0,0.1-0.1c0.4-0.2,0.8-0.5,1.2-0.7
		c0.1,0,0.2-0.1,0.3-0.1c0.4-0.2,0.9-0.4,1.4-0.6c0,0,0,0,0,0c0.5-0.2,1-0.4,1.4-0.6c0.1,0,0.2-0.1,0.3-0.1c0.4-0.1,0.8-0.3,1.2-0.4
		c0.1,0,0.3-0.1,0.4-0.1c0.5-0.1,0.9-0.2,1.4-0.3c0,0,0.1,0,0.1,0c0.5-0.1,1-0.2,1.5-0.3c0.1,0,0.3,0,0.4-0.1c0.4,0,0.8-0.1,1.2-0.1
		c0.2,0,0.3,0,0.5,0c0.5,0,1-0.1,1.6-0.1c0.4,0,0.8,0,1.3,0c0.4,0,0.7,0,1.1,0.1c0.1,0,0.1,0,0.2,0c0.8,0.1,1.6,0.2,2.4,0.4
		C276.4,147.7,285.1,157.9,285.1,170.1z M128.9,20h157.3l-36.1,106.5c-1.5,0.3-3,0.8-4.5,1.3l-38-77.5l-38.1,77
		c-1.5-0.5-3.1-0.8-4.7-1.1L128.9,20z M200.4,161.4c-1.9-9.4-6.7-17.8-13.5-24l20.7-41.8l20.9,42.7c-6.2,6.2-10.7,14.1-12.5,23.1
		L200.4,161.4z M150.3,145.6c0.5-0.1,0.9-0.2,1.4-0.3c0.1,0,0.2,0,0.3,0c0.4-0.1,0.8-0.1,1.2-0.2c0.1,0,0.2,0,0.4,0
		c0.4,0,0.7-0.1,1.1-0.1c0.1,0,0.3,0,0.4,0c0.5,0,1,0,1.5,0c0.5,0,1,0,1.5,0c0.2,0,0.3,0,0.5,0c0.4,0,0.7,0.1,1,0.1
		c0.2,0,0.3,0,0.5,0.1c0.4,0.1,0.7,0.1,1.1,0.2c0.1,0,0.2,0,0.4,0.1c0.5,0.1,1,0.2,1.4,0.3c0.1,0,0.1,0,0.1,0
		c0.4,0.1,0.8,0.2,1.2,0.4c0.1,0,0.2,0.1,0.4,0.1c0.3,0.1,0.7,0.2,1,0.4c0.1,0,0.2,0.1,0.3,0.1c0.4,0.2,0.8,0.3,1.2,0.5
		c0,0,0.1,0,0.1,0c0.5,0.2,0.9,0.4,1.3,0.7c0,0,0,0,0.1,0c0.4,0.2,0.8,0.5,1.2,0.7c0.1,0,0.1,0.1,0.2,0.1c0.4,0.2,0.7,0.5,1.1,0.7
		c0,0,0.1,0.1,0.1,0.1c1.2,0.9,2.3,1.9,3.4,2.9c0,0,0.1,0.1,0.1,0.1c1,1.1,2,2.3,2.8,3.6c2.6,4,4.1,8.7,4.1,13.8
		c0,13.9-11.3,25.2-25.2,25.2s-25.2-11.3-25.2-25.2C131.2,158.3,139.3,148.4,150.3,145.6z M51.9,144.9c13.9,0,25.2,11.3,25.2,25.2
		s-11.3,25.2-25.2,25.2S26.7,184,26.7,170.1S38,144.9,51.9,144.9z M284.5,231.6c-2.2,12.8-10.1,24-21.7,30.7
		c-10.9,6.3-24.3,8.3-38.4,10.3c-7.7,1.1-15.8,2.3-23.6,4.2c-20.8,5.1-40.8,15.1-60.2,24.7c-24.8,12.3-48.2,23.9-69.9,23.9
		c-11.3,0-21.4-3.2-31-9.9c-22-15.2-20.9-43.7-18.3-59.3c2.4-14.6,9.1-28.3,15.5-41.4c0.4-0.8,0.7-1.5,1.1-2.3
		c2.2,0.8,4.5,1.4,6.9,1.8c-3.8,21.2,7,43.1,28,53.9l3.8,2l4.1-1.5c17.5-6.2,33.7-16.3,48-29.8c8.1-7.6,15-15.8,20.8-24.7
		c2.3,0.4,4.6,0.5,6.9,0.5c20.8,0,38.3-14.3,43.3-33.5l16.8,0c5,19.3,22.5,33.5,43.3,33.5c8.3,0,16-2.3,22.6-6.2
		C285.1,216,285.9,223.8,284.5,231.6z"/>
</g>
</svg>
