<svg version="1.1" id="Layer_1" xmlns="http://www.w3.org/2000/svg" xmlns:xlink="http://www.w3.org/1999/xlink" x="0px" y="0px"
	 width="100%" viewBox="0 0 214 235" enable-background="new 0 0 214 235" xml:space="preserve">
<path fill="#FFFFFF" opacity="1.000000" stroke="none" 
	d="
M70.000000,1.000000 
	C118.333336,1.000000 166.666672,1.000000 215.000000,1.006724 
	C215.000000,2.342324 215.000000,3.671200 214.670670,5.205213 
	C213.897217,6.050327 213.272446,6.630003 213.035706,7.339197 
	C208.520111,20.867151 204.127350,34.436497 199.548660,47.942867 
	C195.161163,60.885273 190.590500,73.765579 186.141632,86.554436 
	C187.723236,87.354095 188.823120,88.046913 190.015457,88.492218 
	C204.249512,93.808350 214.890228,114.264450 205.162247,130.560226 
	C204.407928,131.823837 204.772095,134.276428 205.460007,135.793991 
	C209.520905,144.752625 210.315186,154.072754 207.906204,163.412521 
	C203.563629,180.248978 192.902939,191.481720 175.986801,195.910034 
	C167.115677,198.232285 157.927979,199.338730 148.890915,201.035080 
	C135.055405,203.632126 122.234268,209.188675 109.649857,215.160431 
	C94.868500,222.174728 80.741760,230.654755 64.510254,234.235214 
	C64.224319,234.298264 64.165039,235.388870 64.000000,236.000000 
	C54.979103,236.000000 45.958210,236.000000 36.764366,235.668854 
	C34.575966,234.510513 32.537895,233.734131 30.548710,232.847992 
	C16.892708,226.764496 7.046313,217.229675 2.934668,202.445358 
	C2.763999,201.831696 1.665982,201.475922 1.000000,201.000000 
	C1.000000,190.979111 1.000000,180.958206 1.341190,170.765808 
	C2.107791,170.108826 2.717727,169.692947 2.930999,169.127457 
	C6.256578,160.309601 9.311961,151.381210 12.934245,142.688568 
	C14.224372,139.592575 14.345854,137.440231 12.305004,134.702515 
	C6.726385,127.219078 4.524199,118.894775 6.998210,109.625984 
	C10.699807,95.758102 21.420975,87.783501 33.638721,86.091484 
	C48.810635,83.990341 64.179581,95.787262 67.381653,111.265060 
	C69.985588,123.851669 61.153057,141.470963 49.095119,145.125412 
	C47.830933,145.508545 46.517586,147.217178 46.077152,148.584656 
	C43.572277,156.361893 47.318668,162.319733 52.305248,167.683533 
	C53.130703,168.571426 55.264526,169.291046 56.222721,168.849457 
	C69.563171,162.701385 80.723076,153.874588 89.242149,141.815781 
	C67.686035,123.071678 76.675262,94.454071 98.232986,87.259018 
	C97.902870,86.060860 97.625984,84.822151 97.222389,83.626205 
	C91.278168,66.012306 85.244217,48.428276 79.388565,30.785048 
	C76.109856,20.906212 73.120003,10.931507 70.000000,1.000000 
M178.209412,179.979965 
	C181.470245,177.348511 185.283936,175.169037 187.879730,171.993896 
	C193.735672,164.831009 195.711227,156.445587 194.082016,147.175308 
	C193.544937,144.119293 192.758179,143.773331 189.970474,144.939255 
	C173.817947,151.694885 154.800629,143.862701 149.133392,127.649559 
	C147.940521,124.236969 145.782715,124.946518 143.722748,125.079506 
	C141.068008,125.250900 137.428238,123.409950 136.156006,127.441643 
	C132.254318,139.806137 118.461586,148.597702 105.757271,147.130920 
	C104.593178,146.996521 102.868774,148.180237 102.035690,149.245468 
	C90.069801,164.545776 75.857376,176.876968 57.460651,183.932846 
	C54.269993,185.156616 51.397175,184.980057 48.950417,182.938110 
	C44.818447,179.489746 40.496361,176.090088 37.110531,171.966782 
	C31.350605,164.952271 30.135984,156.415131 31.156483,147.435135 
	C29.726854,147.063660 28.563717,146.761414 27.393713,146.451355 
	C17.863262,164.329971 14.323905,175.183075 16.003420,192.888184 
	C17.157520,205.054474 23.411901,213.753387 34.445614,218.723526 
	C45.748642,223.814941 57.341053,222.685760 68.354744,218.047058 
	C84.316078,211.324539 99.943611,203.811951 115.745193,196.706772 
	C126.039780,192.077805 136.663818,188.696686 147.893570,186.856796 
	C157.843719,185.226562 167.595581,182.385925 178.209412,179.979965 
M163.500000,15.000000 
	C139.052277,15.000000 114.604546,15.000000 90.211754,15.000000 
	C90.107132,15.756192 89.938843,16.126553 90.033524,16.408659 
	C97.679787,39.192692 105.350746,61.968437 113.001656,84.750908 
	C113.472359,86.152504 113.796684,87.603264 114.189110,89.031151 
	C114.826469,88.313469 115.463829,87.595795 116.101189,86.878113 
	C124.749031,69.564026 133.396866,52.249943 142.300720,34.423306 
	C150.810120,51.625454 158.923264,68.072632 167.117630,84.479233 
	C167.617935,85.480934 168.761673,86.161263 169.606018,86.991112 
	C170.393326,86.083893 171.558212,85.303703 171.912415,84.250793 
	C179.617813,61.346054 187.232971,38.410950 195.025833,15.000000 
	C184.703857,15.000000 174.601929,15.000000 163.500000,15.000000 
M121.988701,125.137184 
	C126.886185,117.279457 123.399994,103.246597 111.987175,100.791763 
	C102.794716,98.814499 96.346153,101.506393 91.931412,111.246758 
	C89.050476,117.603020 92.559586,127.277214 99.082550,131.029846 
	C104.935837,134.397186 114.719429,134.835297 121.988701,125.137184 
M162.842331,109.682358 
	C160.425735,114.644524 160.602615,119.505844 163.105911,124.433937 
	C166.366241,130.852386 173.816147,134.361481 181.721008,132.987228 
	C188.164978,131.866959 194.775574,123.927391 194.954330,117.093536 
	C195.117035,110.873726 189.524139,102.988701 183.532898,101.003067 
	C176.508301,98.674965 169.732620,99.720261 162.842331,109.682358 
M22.297279,125.829460 
	C29.262724,134.820282 39.060406,134.394180 44.886219,131.040115 
	C51.901463,127.001289 55.276260,117.146561 51.896656,109.810013 
	C48.264732,101.925720 38.210411,98.678337 31.618763,100.818253 
	C22.518110,103.772697 16.569681,113.916336 22.297279,125.829460 
M144.569519,71.053185 
	C143.897858,69.785782 143.226196,68.518379 142.470062,67.091583 
	C137.913422,76.189888 133.408798,85.184303 129.172241,93.643456 
	C131.294022,97.189888 133.853622,100.140518 134.926407,103.557892 
	C136.747482,109.358902 140.275452,111.070122 145.814987,110.007217 
	C146.453720,109.884659 147.114105,109.874977 146.824600,109.902580 
	C149.901199,104.505157 152.660553,99.664268 155.543198,94.607124 
	C152.203049,87.373428 148.587921,79.544189 144.569519,71.053185 
z"/>
<path fill="none" opacity="1.000000" stroke="none" 
	d="
M69.531342,1.000000 
	C73.120003,10.931507 76.109856,20.906212 79.388565,30.785048 
	C85.244217,48.428276 91.278168,66.012306 97.222389,83.626205 
	C97.625984,84.822151 97.902870,86.060860 98.232986,87.259018 
	C76.675262,94.454071 67.686035,123.071678 89.242149,141.815781 
	C80.723076,153.874588 69.563171,162.701385 56.222721,168.849457 
	C55.264526,169.291046 53.130703,168.571426 52.305248,167.683533 
	C47.318668,162.319733 43.572277,156.361893 46.077152,148.584656 
	C46.517586,147.217178 47.830933,145.508545 49.095119,145.125412 
	C61.153057,141.470963 69.985588,123.851669 67.381653,111.265060 
	C64.179581,95.787262 48.810635,83.990341 33.638721,86.091484 
	C21.420975,87.783501 10.699807,95.758102 6.998210,109.625984 
	C4.524199,118.894775 6.726385,127.219078 12.305004,134.702515 
	C14.345854,137.440231 14.224372,139.592575 12.934245,142.688568 
	C9.311961,151.381210 6.256578,160.309601 2.930999,169.127457 
	C2.717727,169.692947 2.107791,170.108826 1.341190,170.297150 
	C1.000000,113.770378 1.000000,57.540760 1.000000,1.000000 
	C23.686613,1.000000 46.374649,1.000000 69.531342,1.000000 
z"/>
<path fill="none" opacity="1.000000" stroke="none" 
	d="
M64.468658,236.000000 
	C64.165039,235.388870 64.224319,234.298264 64.510254,234.235214 
	C80.741760,230.654755 94.868500,222.174728 109.649857,215.160431 
	C122.234268,209.188675 135.055405,203.632126 148.890915,201.035080 
	C157.927979,199.338730 167.115677,198.232285 175.986801,195.910034 
	C192.902939,191.481720 203.563629,180.248978 207.906204,163.412521 
	C210.315186,154.072754 209.520905,144.752625 205.460007,135.793991 
	C204.772095,134.276428 204.407928,131.823837 205.162247,130.560226 
	C214.890228,114.264450 204.249512,93.808350 190.015457,88.492218 
	C188.823120,88.046913 187.723236,87.354095 186.141632,86.554436 
	C190.590500,73.765579 195.161163,60.885273 199.548660,47.942867 
	C204.127350,34.436497 208.520111,20.867151 213.035706,7.339197 
	C213.272446,6.630003 213.897217,6.050327 214.670670,5.705174 
	C215.000000,82.578560 215.000000,159.157120 215.000000,236.000000 
	C164.979416,236.000000 114.958366,236.000000 64.468658,236.000000 
z"/>
<path fill="none" opacity="1.000000" stroke="none" 
	d="
M1.000000,201.468658 
	C1.665982,201.475922 2.763999,201.831696 2.934668,202.445358 
	C7.046313,217.229675 16.892708,226.764496 30.548710,232.847992 
	C32.537895,233.734131 34.575966,234.510513 36.295708,235.668854 
	C24.406744,236.000000 12.813488,236.000000 1.000000,236.000000 
	C1.000000,224.646713 1.000000,213.292023 1.000000,201.468658 
z"/>
<path fill="none" opacity="1.000000" stroke="none" 
	d="
M177.822189,180.029785 
	C167.595581,182.385925 157.843719,185.226562 147.893570,186.856796 
	C136.663818,188.696686 126.039780,192.077805 115.745193,196.706772 
	C99.943611,203.811951 84.316078,211.324539 68.354744,218.047058 
	C57.341053,222.685760 45.748642,223.814941 34.445614,218.723526 
	C23.411901,213.753387 17.157520,205.054474 16.003420,192.888184 
	C14.323905,175.183075 17.863262,164.329971 27.397146,146.455261 
	C28.563717,146.761414 29.726854,147.063660 31.156483,147.435135 
	C30.135984,156.415131 31.350605,164.952271 37.110531,171.966782 
	C40.496361,176.090088 44.818447,179.489746 48.950417,182.938110 
	C51.397175,184.980057 54.269993,185.156616 57.460651,183.932846 
	C75.857376,176.876968 90.069801,164.545776 102.035690,149.245468 
	C102.868774,148.180237 104.593178,146.996521 105.757271,147.130920 
	C118.461586,148.597702 132.254318,139.806137 136.156006,127.441643 
	C137.428238,123.409950 141.068008,125.250900 143.722748,125.079506 
	C145.782715,124.946518 147.940521,124.236969 149.133392,127.649559 
	C154.800629,143.862701 173.817947,151.694885 189.970474,144.939255 
	C192.758179,143.773331 193.544937,144.119293 194.082016,147.175308 
	C195.711227,156.445587 193.735672,164.831009 187.879730,171.993896 
	C185.283936,175.169037 181.470245,177.348511 177.822189,180.029785 
z"/>
<path fill="none" opacity="1.000000" stroke="none" 
	d="
M164.000000,15.000000 
	C174.601929,15.000000 184.703857,15.000000 195.025833,15.000000 
	C187.232971,38.410950 179.617813,61.346054 171.912415,84.250793 
	C171.558212,85.303703 170.393326,86.083893 169.606018,86.991119 
	C168.761673,86.161263 167.617935,85.480934 167.117630,84.479233 
	C158.923264,68.072632 150.810120,51.625454 142.300720,34.423306 
	C133.396866,52.249943 124.749031,69.564026 116.101189,86.878113 
	C115.463829,87.595795 114.826469,88.313469 114.189110,89.031151 
	C113.796684,87.603264 113.472359,86.152504 113.001656,84.750908 
	C105.350746,61.968437 97.679787,39.192692 90.033524,16.408659 
	C89.938843,16.126553 90.107132,15.756192 90.211754,15.000000 
	C114.604546,15.000000 139.052277,15.000000 164.000000,15.000000 
z"/>
<path fill="none" opacity="1.000000" stroke="none" 
	d="
M121.836304,125.492386 
	C114.719429,134.835297 104.935837,134.397186 99.082550,131.029846 
	C92.559586,127.277214 89.050476,117.603020 91.931412,111.246758 
	C96.346153,101.506393 102.794716,98.814499 111.987175,100.791763 
	C123.399994,103.246597 126.886185,117.279457 121.836304,125.492386 
z"/>
<path fill="none" opacity="1.000000" stroke="none" 
	d="
M162.924286,109.298302 
	C169.732620,99.720261 176.508301,98.674965 183.532898,101.003067 
	C189.524139,102.988701 195.117035,110.873726 194.954330,117.093536 
	C194.775574,123.927391 188.164978,131.866959 181.721008,132.987228 
	C173.816147,134.361481 166.366241,130.852386 163.105911,124.433937 
	C160.602615,119.505844 160.425735,114.644524 162.924286,109.298302 
z"/>
<path fill="none" opacity="1.000000" stroke="none" 
	d="
M22.152672,125.466858 
	C16.569681,113.916336 22.518110,103.772697 31.618763,100.818253 
	C38.210411,98.678337 48.264732,101.925720 51.896656,109.810013 
	C55.276260,117.146561 51.901463,127.001289 44.886219,131.040115 
	C39.060406,134.394180 29.262724,134.820282 22.152672,125.466858 
z"/>
<path fill="none" opacity="1.000000" stroke="none" 
	d="
M144.771149,71.384064 
	C148.587921,79.544189 152.203049,87.373428 155.543198,94.607124 
	C152.660553,99.664268 149.901199,104.505157 146.824600,109.902580 
	C147.114105,109.874977 146.453720,109.884659 145.814987,110.007217 
	C140.275452,111.070122 136.747482,109.358902 134.926407,103.557892 
	C133.853622,100.140518 131.294022,97.189888 129.172241,93.643456 
	C133.408798,85.184303 137.913422,76.189888 142.470062,67.091583 
	C143.226196,68.518379 143.897858,69.785782 144.771149,71.384064 
z"/>
</svg>