<svg xmlns="http://www.w3.org/2000/svg" width="72" height="91" fill="none" viewBox="0 0 72 91"><path fill="#fff" fill-rule="evenodd" d="M72 4.88263C67.7297 10.2535 63.5312 15.5837 59.4046 20.8732C55.278 26.1628 51.2028 31.4726 47.1788 36.8028C49.314 41.1158 51.4902 45.622 53.7074 50.3216C55.9247 55.0212 58.2036 60.0156 60.5441 65.3052L58.7579 66.77L58.8811 68.0516C58.5115 68.4178 58.1112 68.7535 57.6801 69.0587C57.2489 69.3639 56.7665 69.6385 56.2327 69.8826L56.9102 71.8967C56.4585 72.7105 55.8837 73.3717 55.1856 73.8803C54.4876 74.3889 53.728 74.7246 52.9068 74.8873C52.0445 74.8466 50.207 72.8427 47.3944 68.8756C44.5817 64.9084 40.8555 59.0799 36.2156 51.3897C31.822 57.3709 27.562 63.5352 23.4354 69.8826C19.3088 76.2301 15.3157 82.7809 11.4559 89.5352C10.4705 90.0235 9.44397 90.3897 8.37639 90.6338C7.30881 90.8779 6.20018 91 5.05047 91H4.31138C3.12061 89.9014 2.16596 88.7316 1.44739 87.4906C0.728824 86.2496 0.369547 85.2629 0.369547 84.5305C0.369547 84.1236 0.431137 83.6354 0.55432 83.0657C0.677503 82.4961 0.862274 81.784 1.10864 80.9296L0 78.9155C1.47819 75.2128 4.60904 69.9946 9.39264 63.2606C14.1762 56.5266 20.674 48.1143 28.8862 38.0235C27.2438 33.7105 25.5911 29.2144 23.9281 24.5352C22.2652 19.856 20.4277 14.5259 18.4157 8.5446C18.9495 7.40531 19.5244 6.48983 20.1403 5.79812C20.7562 5.10641 21.3105 4.76056 21.8033 4.76056C22.1317 4.76056 22.4602 4.85211 22.7887 5.03521C23.1172 5.21831 23.4662 5.5133 23.8358 5.92019C24.0821 5.67606 24.3695 5.48279 24.698 5.34038C25.0265 5.19796 25.3755 5.12676 25.7451 5.12676H26.2378C26.5252 4.71987 26.8332 4.37402 27.1617 4.0892C27.4902 3.80438 27.8597 3.53991 28.2703 3.29577H28.3935C29.5843 3.29577 31.8426 6.79496 35.1685 13.7934C37.1805 18.0251 38.864 21.4836 40.219 24.169C42.6416 21.4022 45.7622 17.7606 49.5808 13.2441C56.8897 4.61811 60.9136 0.305164 61.6527 0.305164C62.1044 0.305164 62.6895 0.498433 63.408 0.884977C64.1266 1.27152 64.9786 1.85133 65.9641 2.62441L68.7357 0C69.3926 0.691709 69.9983 1.44444 70.5526 2.25822C71.1069 3.07199 71.5894 3.94679 72 4.88263Z" clip-rule="evenodd"/></svg>