<svg xmlns="http://www.w3.org/2000/svg" width="80" height="80" fill="none" viewBox="0 0 80 80"><path fill="#fff" fill-rule="evenodd" d="M80 1.91257C70.0766 12.4409 60.7759 23.3333 52.0977 34.5902C43.4195 45.8471 35.4406 57.3952 28.1609 69.235C27.6245 70.1093 26.954 71.3297 26.1494 72.8962C23.659 77.6321 20.115 80 15.5172 80C13.5632 80 11.954 79.7268 10.6897 79.1803C9.42528 78.6339 8.25671 77.6867 7.18391 76.3388C6.30268 75.173 5.47893 73.6521 4.71264 71.776C3.94636 69.8998 3.04598 67.1403 2.01149 63.4973C1.93487 63.2787 1.85824 63.0055 1.78161 62.6776C0.593864 58.6339 0 56.102 0 55.082C0 53.0055 1.27393 51.102 3.82184 49.3716C6.36974 47.6412 8.88888 46.776 11.3793 46.776C12.1839 46.776 12.8352 47.0036 13.3333 47.459C13.8314 47.9144 14.4061 48.8889 15.0575 50.3825C15.4406 51.2933 15.9195 52.5319 16.4943 54.0984C17.7969 57.5956 18.8889 59.3443 19.7701 59.3443C20.5364 59.3443 23.5632 55.3552 28.8506 47.377C33.9081 39.7632 38.2567 33.3698 41.8966 28.1967C46.9924 20.9471 50.8716 15.7104 53.5345 12.4863C56.1973 9.26228 58.6015 6.81239 60.7471 5.13661C62.6245 3.67941 65.0383 2.53188 67.9885 1.69399C70.9387 0.856098 74.6743 0.29144 79.1954 0L80 1.91257Z" clip-rule="evenodd"/></svg>