<?xml version="1.0" encoding="utf-8"?>
<svg x="0px" y="0px" viewBox="0 0 152 152" xmlns="http://www.w3.org/2000/svg">
  <g id="Ellipse_1_1_" enable-background="new    ">
    <g id="Ellipse_1">
      <g>
        <circle fill-rule="evenodd" clip-rule="evenodd" fill="#FFFFFF" cx="76" cy="76" r="76"/>
      </g>
    </g>
  </g>
  <g id="Layer_5">
    <polygon fill-rule="evenodd" clip-rule="evenodd" points="99.3,39.3 75,54.9 75,81 99.3,96.6 123.7,81 123.7,54.9 &#9;&#10;&#9;&#9;" style="fill: rgb(153, 66, 91);"/>
  </g>
  <g id="Layer_3">
    <g>
      <path d="M99.3,98.5c-0.4,0-0.7-0.1-1-0.3L74,82.6c-0.5-0.3-0.9-1-0.9-1.6V54.9c0-0.6,0.3-1.2,0.9-1.6l24.3-15.6&#10;&#9;&#9;&#9;c0.6-0.4,1.4-0.4,2.1,0l24.3,15.6c0.5,0.3,0.9,1,0.9,1.6V81c0,0.6-0.3,1.2-0.9,1.6l-24.3,15.6C100.1,98.4,99.7,98.5,99.3,98.5z&#10;&#9;&#9;&#9; M76.9,79.9l22.4,14.4l22.4-14.4v-24L99.3,41.5L76.9,55.9V79.9z"/>
    </g>
  </g>
  <polygon fill-rule="evenodd" clip-rule="evenodd" points="50.7 39.3 26.3 54.9 26.3 81 50.7 96.6 75 81 75 54.9" style="fill: rgb(189, 119, 139);"/>
  <path d="M 50.7 98.5 C 50.3 98.5 50 98.4 49.7 98.2 L 25.3 82.6 C 24.8 82.3 24.4 81.6 24.4 81 L 24.4 54.9 C 24.4 54.3 24.7 53.7 25.3 53.3 L 49.6 37.7 C 50.2 37.3 51 37.3 51.7 37.7 L 76 53.3 C 76.5 53.6 76.9 54.3 76.9 54.9 L 76.9 81 C 76.9 81.6 76.6 82.2 76 82.6 L 51.7 98.2 C 51.4 98.4 51 98.5 50.7 98.5 Z M 28.2 79.9 L 50.6 94.3 L 73 79.9 L 73 55.9 L 50.7 41.5 L 28.2 55.9 L 28.2 79.9 Z"/>
  <g>
    <polygon fill-rule="evenodd" clip-rule="evenodd" points="75,67.3 50.7,83 50.7,109 75,124.7 99.3,109 99.3,83 &#10;&#9;&#9;&#9;&#9;&#9;&#9;&#9;" style="fill: rgb(241, 214, 222);"/>
  </g>
  <g>
    <g>
      <path d="M75,126.6c-0.4,0-0.7-0.1-1-0.3l-24.3-15.6c-0.5-0.3-0.9-1-0.9-1.6V83c0-0.6,0.3-1.2,0.9-1.6L74,65.7&#10;&#9;&#9;&#9;&#9;c0.6-0.4,1.4-0.4,2.1,0l24.3,15.6c0.5,0.3,0.9,1,0.9,1.6V109c0,0.6-0.3,1.2-0.9,1.6L76,126.3C75.7,126.5,75.4,126.6,75,126.6z&#10;&#9;&#9;&#9;&#9; M52.6,108L75,122.4L97.4,108V84L75,69.6L52.6,84V108z"/>
    </g>
  </g>
</svg>