<?xml version="1.0" encoding="utf-8"?>
<svg x="0px" y="0px" viewBox="0 0 152 152" xmlns="http://www.w3.org/2000/svg">
  <g id="Ellipse_1_1_" enable-background="new    ">
    <g id="Ellipse_1">
      <g>
        <circle fill-rule="evenodd" clip-rule="evenodd" fill="#FFFFFF" cx="76" cy="76" r="76"/>
      </g>
    </g>
  </g>
  <g>
    <polygon fill-rule="evenodd" clip-rule="evenodd" points="76,42.6 24.8,70.4 24.8,86.3 76,114.1 127.2,86.3 &#10;&#9;&#9;&#9;&#9;127.2,70.4 &#9;&#9;&#9;" style="fill: rgb(153, 66, 91);"/>
  </g>
  <g>
    <polygon stroke="#000000" stroke-width="3.8" stroke-linecap="round" stroke-linejoin="round" stroke-miterlimit="100" points="&#10;&#9;&#9;&#9;&#9;76,42.6 24.8,70.4 24.8,86.3 76,114.1 127.2,86.3 127.2,70.4 &#9;&#9;&#9;" fill="none"/>
  </g>
  <g>
    <polygon fill-rule="evenodd" clip-rule="evenodd" points="76,42.6 24.8,70.4 24.8,70.9 76,98.7 127.2,70.9 &#10;&#9;&#9;&#9;&#9;127.2,70.4 &#9;&#9;&#9;" style="fill: rgb(241, 214, 222);"/>
  </g>
  <g>
    <polygon stroke="#000000" stroke-width="3.8" stroke-linecap="round" stroke-linejoin="round" stroke-miterlimit="100" points="&#10;&#9;&#9;&#9;&#9;76,42.6 24.8,70.4 24.8,70.9 76,98.7 127.2,70.9 127.2,70.4 &#9;&#9;&#9;" fill="none"/>
  </g>
  <g id="Group_3_1_">
    <path d="M100.9,38.6c-0.1-0.3-0.3-0.6-0.6-0.7L89.7,33c-0.6-0.3-1.3,0-1.6,0.6l-0.3,0.7c-0.1,0.3-0.1,0.6,0,0.9&#10;&#9;&#9;c0.1,0.3,0.3,0.6,0.6,0.7l3.7,1.7L80.6,59.8l-3.5-1.6c-0.2-0.1-0.5-0.1-0.7-0.1c-0.1,0-0.3,0-0.4,0.1c-0.3,0.1-0.6,0.4-0.7,0.7&#10;&#9;&#9;l-3.2,7.5c-0.3,0.6,0,1.3,0.6,1.6l0.7,0.4c0.3,0.1,0.6,0.2,1,0c0.3-0.1,0.6-0.4,0.7-0.7l2.4-5.7l7.3,3.2l-2.3,3.7&#10;&#9;&#9;c-0.3,0.4-0.3,1,0.1,1.4c0.2,0.3,0.6,0.5,1,0.5c0.1,0,0.2,0,0.4-0.1l0.8-0.3c0.2-0.1,0.5-0.2,0.6-0.4l3.5-4.8&#10;&#9;&#9;c0.3-0.3,0.3-0.8,0.1-1.2c-0.1-0.3-0.4-0.5-0.7-0.7c-0.1,0-0.1-0.1-0.2-0.1l-4.5-2L95,39.1l3.9,1.8c0.6,0.3,1.3,0,1.6-0.6l0.3-0.7&#10;&#9;&#9;C101,39.2,101,38.9,100.9,38.6z"/>
  </g>
  <g id="Layer_4">
    <g id="Shape_1">
      <g>
        <path fill-rule="evenodd" clip-rule="evenodd" fill="#FFEBE4" d="M77.6,68.6C73,67.3,67.1,67,67.1,67l20.3,5.7&#10;&#9;&#9;&#9;&#9;C87.4,72.7,83.1,70.2,77.6,68.6z"/>
      </g>
      <g>
        <path fill="none" stroke-width="3" stroke-linecap="round" stroke-linejoin="round" stroke-miterlimit="100" d="&#10;&#9;&#9;&#9;&#9;M77.6,68.6C73,67.3,67.1,67,67.1,67l20.3,5.7C87.4,72.7,83.1,70.2,77.6,68.6z" style="stroke: rgb(189, 119, 139);"/>
      </g>
    </g>
  </g>
</svg>