<svg version="1.0" xmlns="http://www.w3.org/2000/svg" width="933.333" height="933.333" viewBox="0 0 700 700"><path d="M296 77.6c0 .3 15.2 45.3 33.7 100l33.7 99.4 3.5 1c2 .5 4.1 1 4.7 1 .6 0 16.1-30.4 34.5-67.5S439.7 144 440 144c.3 0 15.4 30.3 33.5 67.2 18 37 33.1 67.6 33.4 68 .3.4 2.5.2 4.8-.5l4.3-1.1 3.9-11.6c16.7-49.4 63.1-185.8 63.6-187.3.7-1.6-6.6-1.7-143.4-1.7-79.3 0-144.1.2-144.1.6zm45 226.5c-11.9 2.3-23.7 11.8-29.3 23.6-3 6.4-3.2 7.5-3.2 17.8 0 10.5.2 11.4 3.3 17.8 8.3 16.9 25.6 26.1 44.2 23.6 18.9-2.6 34.3-19 35.7-38.1 2.1-28.3-22.7-50.2-50.7-44.7zm183.6-.1c-11.8 2.1-24.1 11.3-29.7 22.2-11.9 23.5.3 52.1 25.5 59.3 8.5 2.5 21.2 1.7 28.9-1.8 18.8-8.5 28.8-30.7 22.8-50.5-6.1-20.1-26.7-32.8-47.5-29.2zm-370.8 1.5c-7.7 2.5-16.7 9.3-21.5 16.3-5.3 7.8-7.3 14.4-7.3 24.3 0 34.4 39.1 53.9 66.9 33.5 21-15.5 22.7-47 3.4-64.6-8.5-7.8-14.9-10.3-26.8-10.7-6.9-.2-11.5.2-14.7 1.2z"/><path d="M421.5 354.9c-2.5.5-3.1 1.2-3.6 4.6-3.1 17.7-17 36.9-33.5 46.1-11.1 6.2-20.2 8.7-33.4 9l-11.5.2-6 8.5c-30.1 42.3-68.3 72.8-113.7 90.7l-10.7 4.2-6.9-4.1c-23.9-13.9-38.8-33.2-44.7-57.6-2.1-8.7-2.2-27.7-.2-35.7l1.4-5.7-6.6-1.5c-3.6-.8-7.6-1.8-8.9-2.2-2-.6-2.8.6-9.8 15.2-19.4 40.7-25.3 59.2-27.4 86.5-3.7 49.5 13.4 83.2 51.4 100.9 14.1 6.7 22.7 8.4 41.1 8.5 17.8 0 27.7-1.7 47.7-8.1 20.1-6.5 31-11.3 89.3-39.7 63.7-30.9 81.2-36.7 136.9-45.2 39.9-6.1 56-10.9 71.6-21.5 16.3-11.1 27.1-25.7 33.2-45 2-6.5 2.3-9.5 2.3-23 0-15.9-1-21.3-6-33.3l-1.6-3.8-6.2 3.5c-17.9 9.9-40.3 11.2-59.5 3.6-19.9-8-35.8-26-41.3-46.6-2.1-8.1-2.2-8.2-5.8-8.8-4.7-.8-33.7-.6-37.6.3z"/></svg>