<?xml version="1.0" encoding="utf-8"?>
<!-- Generator: Adobe Illustrator 21.1.0, SVG Export Plug-In . SVG Version: 6.00 Build 0)  -->
<svg version="1.1" id="Layer_1" xmlns="http://www.w3.org/2000/svg" xmlns:xlink="http://www.w3.org/1999/xlink" x="0px" y="0px"
	 viewBox="0 0 512 512" style="enable-background:new 0 0 512 512;" xml:space="preserve">
<style type="text/css">
	.st0{fill:#99425B;stroke:#FFFFFF;stroke-width:20;}
	.st1{fill:none;stroke:#FFFFFF;stroke-width:20;}
	.st2{fill:#99425B;}
</style>
<path class="st0" d="M391.8,254.2c-0.5,0.3-18.3-2.7-40.7-4.2c-18.2-1.2-39.5-1.2-56.7,0c-14,0.9-32.4-6.1-34.6,2.3
	c-8.2,31.4-26,58.7-48.5,79.9c-17,16-36.4,28.1-57.4,35.6c-25-12.8-36.8-41.4-26.2-66.4c8.4-19.9,18.3-41.7,0.1-46.7
	c-13.2-3.6-20.5,9-25.5,22.5c-9.7,25.9-28.2,52.7-33.5,84.5c-5.6,33.5,0,69.1,29,89.3c67.6,46.8,140.9-29,218.2-48.1
	c28-6.9,58.8-5.8,83.5-20.1c18.5-10.7,30.8-28.5,34.2-48.5C439.3,302.1,422.6,270.1,391.8,254.2z"/>
<path class="st1" d="M259.7,252.2c-8.2,31.4-26,58.7-48.5,79.9c-17,16-36.4,28.1-57.4,35.6c-25-12.8-36.8-41.4-26.2-66.4
	c8.4-19.9,18.3-41.7,0.1-46.7c-13.2-3.6-20.5,9-25.5,22.5c-9.7,25.9-28.2,52.7-33.5,84.5c-5.6,33.5,0,69.1,29,89.3
	c67.6,46.8,140.9-29,218.2-48.1c28-6.9,58.8-5.8,83.5-20.1c18.5-10.7,30.8-28.5,34.2-48.5c5.6-32.1-11.1-64.1-41.9-80"/>
<polygon class="st2" points="321.8,127.2 376.1,238 441.2,46.1 202.2,46.1 267.1,237.7 "/>
<polygon class="st1" points="321.8,127.2 376.1,238 441.2,46.1 202.2,46.1 267.1,237.7 "/>
<circle class="st2" cx="255.9" cy="252.6" r="40.9"/>
<circle class="st1" cx="255.9" cy="252.6" r="40.9"/>
<circle class="st0" cx="389.2" cy="252.6" r="40.9"/>
<circle class="st1" cx="389.2" cy="252.6" r="40.9"/>
<circle class="st2" cx="122" cy="252.9" r="40.9"/>
<circle class="st1" cx="122" cy="252.9" r="40.9"/>
</svg>
