<?xml version="1.0" standalone="no"?>
<!DOCTYPE svg PUBLIC "-//W3C//DTD SVG 20010904//EN"
 "http://www.w3.org/TR/2001/REC-SVG-20010904/DTD/svg10.dtd">
<svg version="1.0" xmlns="http://www.w3.org/2000/svg"
 width="700.000000pt" height="700.000000pt" viewBox="0 0 700.000000 700.000000"
 preserveAspectRatio="xMidYMid meet">
<metadata>
Created by potrace 1.11, written by Peter Selinger 2001-2013
</metadata>
<g transform="translate(0.000000,700.000000) scale(0.100000,-0.100000)"
fill="#000000" stroke="none">
<path d="M2910 6651 c0 -16 5 -31 11 -33 5 -2 13 -22 16 -46 3 -26 11 -42 19
-42 10 0 14 -14 14 -50 0 -38 4 -50 15 -50 11 0 15 -12 15 -45 0 -33 4 -45 15
-45 11 0 15 -12 15 -45 0 -32 4 -45 14 -45 10 0 17 -16 22 -47 4 -27 11 -51
16 -54 5 -3 12 -25 15 -48 3 -22 9 -41 14 -41 4 0 11 -21 15 -47 4 -27 11 -51
16 -54 5 -3 12 -25 15 -48 4 -25 11 -41 19 -41 10 0 14 -14 14 -45 0 -33 4
-45 15 -45 10 0 15 -11 15 -35 0 -24 5 -35 15 -35 11 0 15 -12 15 -50 0 -36 4
-50 14 -50 9 0 16 -17 20 -45 4 -25 11 -45 15 -45 5 0 11 -19 14 -41 3 -23 10
-45 15 -48 5 -3 12 -27 16 -53 4 -27 11 -48 17 -48 5 0 9 -10 9 -22 0 -39 12
-68 26 -68 10 0 14 -14 14 -50 0 -38 4 -50 15 -50 11 0 15 -12 15 -45 0 -33 4
-45 15 -45 11 0 15 -12 15 -50 0 -38 4 -50 15 -50 11 0 15 -12 15 -45 0 -32 4
-45 14 -45 14 0 26 -29 26 -67 0 -13 4 -23 9 -23 6 0 13 -20 17 -45 3 -25 10
-45 15 -45 4 0 11 -22 15 -50 4 -32 11 -50 20 -50 10 0 14 -14 14 -45 0 -33 4
-45 15 -45 11 0 15 -12 15 -50 0 -38 4 -50 15 -50 8 0 15 -7 15 -15 0 -8 7
-15 15 -15 8 0 15 -7 15 -15 0 -11 12 -15 44 -15 41 0 45 2 51 30 4 17 13 30
21 30 9 0 14 11 14 35 0 24 5 35 15 35 10 0 15 10 15 30 0 20 5 30 15 30 10 0
15 10 15 30 0 20 5 30 15 30 10 0 15 11 15 35 0 24 5 35 14 35 8 0 17 14 21
30 4 17 10 30 15 30 5 0 11 14 15 30 4 17 10 30 15 30 5 0 11 14 15 30 4 17
13 30 21 30 10 0 14 13 14 45 0 33 4 45 15 45 10 0 15 11 15 35 0 24 5 35 15
35 10 0 15 10 15 30 0 20 5 30 15 30 10 0 15 10 15 30 0 19 5 30 14 30 8 0 17
14 21 30 4 17 10 30 15 30 4 0 11 16 14 35 4 19 11 35 16 35 4 0 11 14 15 30
4 17 10 30 15 30 5 0 11 14 15 30 4 17 13 30 21 30 9 0 14 11 14 35 0 24 5 35
15 35 10 0 15 10 15 30 0 20 5 30 15 30 10 0 15 10 15 30 0 19 5 30 14 30 8 0
17 14 21 30 4 17 10 30 15 30 4 0 11 16 14 35 4 19 11 35 16 35 4 0 11 14 15
30 4 17 10 30 15 30 5 0 11 14 15 30 4 17 13 30 21 30 9 0 14 11 14 30 0 20 5
30 15 30 8 0 15 9 15 20 0 11 7 20 15 20 10 0 15 -10 15 -30 0 -19 5 -30 14
-30 8 0 17 -13 21 -30 4 -16 10 -30 15 -30 4 0 11 -16 14 -35 4 -19 11 -35 16
-35 4 0 11 -13 15 -30 4 -16 10 -30 15 -30 5 0 11 -13 15 -30 4 -16 13 -30 21
-30 9 0 14 -11 14 -35 0 -24 5 -35 15 -35 10 0 15 -10 15 -30 0 -20 5 -30 15
-30 10 0 15 -10 15 -30 0 -20 5 -30 15 -30 10 0 15 -11 15 -35 0 -24 5 -35 14
-35 8 0 17 -13 21 -30 4 -16 10 -30 15 -30 5 0 11 -13 15 -30 4 -16 10 -30 15
-30 4 0 11 -16 14 -35 4 -21 13 -35 21 -35 10 0 15 -10 15 -30 0 -20 5 -30 15
-30 10 0 15 -10 15 -30 0 -20 5 -30 15 -30 10 0 15 -11 15 -35 0 -24 5 -35 15
-35 10 0 15 -10 15 -30 0 -19 5 -30 14 -30 8 0 17 -14 21 -30 4 -16 10 -30 15
-30 5 0 11 -13 15 -30 4 -16 10 -30 15 -30 4 0 11 -16 14 -35 4 -21 13 -35 21
-35 10 0 15 -10 15 -30 0 -20 5 -30 15 -30 10 0 15 -10 15 -30 0 -20 5 -30 15
-30 11 0 15 -12 15 -45 0 -33 4 -45 15 -45 10 0 15 -10 15 -30 0 -19 5 -30 14
-30 8 0 17 -15 20 -35 4 -19 11 -35 16 -35 6 0 10 -7 10 -15 0 -11 12 -15 50
-15 38 0 50 4 50 15 0 8 7 15 15 15 10 0 15 11 15 35 0 24 5 35 15 35 11 0 15
12 15 45 0 31 4 45 14 45 8 0 15 16 19 41 3 23 10 45 15 48 5 3 12 27 16 54 4
26 11 47 15 47 5 0 11 19 14 41 3 23 10 45 15 48 5 3 12 27 16 54 5 31 12 47
22 47 10 0 14 13 14 45 0 33 4 45 15 45 11 0 15 12 15 45 0 33 4 45 15 45 11
0 15 12 15 45 0 32 4 45 14 45 10 0 17 16 22 48 4 26 11 50 16 53 5 3 12 25
15 48 3 22 9 41 14 41 4 0 11 21 15 48 4 26 11 50 16 53 5 3 12 25 15 48 4 25
11 41 19 41 10 0 14 14 14 50 0 38 4 50 15 50 11 0 15 12 15 45 0 33 4 45 15
45 11 0 15 12 15 45 0 33 4 45 15 45 11 0 15 12 15 50 0 37 4 50 15 50 8 0 17
14 21 35 3 19 10 35 14 35 4 0 11 20 14 45 4 25 11 45 17 45 5 0 9 10 9 23 0
38 12 67 26 67 10 0 14 14 14 50 0 38 4 50 15 50 11 0 15 12 15 45 0 33 4 45
15 45 11 0 15 12 15 50 0 38 4 50 15 50 11 0 15 12 15 45 0 31 4 45 14 45 12
0 26 58 26 106 0 12 -268 14 -1665 14 l-1665 0 0 -29z"/>
<path d="M1330 4031 c0 -5 -27 -12 -60 -16 -33 -4 -60 -11 -60 -15 0 -5 -13
-11 -30 -15 -16 -4 -30 -10 -30 -15 0 -4 -9 -10 -20 -13 -11 -3 -20 -12 -20
-21 0 -10 -9 -16 -25 -16 -16 0 -25 -6 -25 -15 0 -8 -6 -15 -14 -15 -8 0 -17
-13 -21 -30 -4 -16 -13 -30 -21 -30 -8 0 -14 -9 -14 -20 0 -11 -7 -20 -15 -20
-10 0 -15 -10 -15 -30 0 -20 -5 -30 -15 -30 -13 0 -15 -27 -15 -185 0 -158 2
-185 15 -185 10 0 15 -10 15 -30 0 -20 5 -30 15 -30 8 0 15 -9 15 -20 0 -11 7
-20 15 -20 8 0 15 -7 15 -15 0 -8 7 -15 15 -15 8 0 15 -7 15 -15 0 -8 7 -15
15 -15 8 0 15 -7 15 -15 0 -8 7 -15 15 -15 8 0 15 -7 15 -15 0 -8 9 -15 20
-15 11 0 20 -6 20 -14 0 -8 12 -17 27 -21 15 -3 31 -12 35 -18 5 -9 61 -12
188 -12 127 0 183 3 188 12 4 6 20 15 35 18 15 4 27 13 27 21 0 8 7 14 15 14
8 0 15 7 15 15 0 8 9 15 20 15 11 0 20 7 20 15 0 8 7 15 15 15 8 0 15 7 15 15
0 8 7 15 15 15 8 0 15 7 15 15 0 8 7 15 15 15 8 0 15 9 15 20 0 11 7 20 15 20
10 0 15 10 15 30 0 20 5 30 15 30 12 0 15 15 15 75 0 60 3 75 15 75 10 0 15
11 15 35 0 24 -5 35 -15 35 -12 0 -15 15 -15 75 0 60 -3 75 -15 75 -10 0 -15
10 -15 30 0 20 -5 30 -15 30 -8 0 -15 7 -15 15 0 9 -6 18 -14 21 -8 3 -18 19
-21 35 -4 16 -13 29 -21 29 -8 0 -14 7 -14 15 0 10 -10 15 -30 15 -23 0 -30 4
-30 20 0 11 -7 20 -15 20 -8 0 -15 4 -15 9 0 5 -13 12 -30 16 -16 4 -30 10
-30 15 0 5 -29 12 -65 15 -36 4 -65 11 -65 16 0 5 -29 9 -65 9 -36 0 -65 -4
-65 -9z"/>
<path d="M3440 4031 c0 -5 -22 -11 -50 -15 -27 -4 -50 -11 -50 -16 0 -4 -13
-11 -30 -15 -16 -4 -30 -10 -30 -15 0 -5 -13 -11 -30 -15 -16 -4 -30 -13 -30
-21 0 -8 -7 -14 -15 -14 -8 0 -15 -7 -15 -15 0 -8 -7 -15 -15 -15 -8 0 -15 -7
-15 -15 0 -8 -7 -15 -15 -15 -8 0 -15 -9 -15 -19 0 -11 -6 -26 -14 -33 -7 -8
-17 -25 -21 -38 -4 -14 -12 -28 -17 -31 -5 -3 -12 -34 -15 -68 -4 -42 -10 -61
-19 -61 -10 0 -14 -17 -14 -65 0 -49 3 -65 14 -65 10 0 16 -19 21 -60 4 -33
11 -60 15 -60 5 0 11 -13 15 -29 3 -16 13 -32 21 -35 8 -3 14 -12 14 -21 0 -8
5 -15 10 -15 6 0 10 -7 10 -15 0 -8 9 -15 20 -15 11 0 20 -7 20 -15 0 -8 7
-15 15 -15 8 0 15 -7 15 -15 0 -8 7 -15 15 -15 8 0 15 -6 15 -14 0 -8 14 -17
30 -21 17 -4 30 -10 30 -15 0 -4 12 -11 27 -15 15 -3 31 -12 35 -18 10 -17
310 -17 315 0 3 7 20 15 39 19 19 3 34 10 34 14 0 4 11 11 25 14 14 4 25 13
25 21 0 8 9 15 20 15 11 0 20 7 20 15 0 8 7 15 15 15 8 0 15 7 15 15 0 8 7 15
15 15 8 0 15 7 15 15 0 8 7 15 15 15 10 0 15 10 15 30 0 19 5 30 14 30 8 0 18
14 21 33 4 17 13 35 19 39 16 10 15 326 -1 336 -6 4 -15 20 -18 35 -4 15 -13
27 -21 27 -8 0 -14 9 -14 20 0 11 -7 20 -15 20 -10 0 -15 10 -15 30 0 20 -5
30 -15 30 -8 0 -15 7 -15 15 0 10 -10 15 -30 15 -18 0 -30 5 -30 13 0 18 -35
45 -67 53 -16 4 -31 11 -34 16 -3 5 -25 12 -48 15 -22 3 -41 10 -41 14 0 5
-43 9 -95 9 -52 0 -95 -4 -95 -9z"/>
<path d="M5570 4031 c0 -5 -27 -12 -60 -16 -33 -4 -60 -11 -60 -16 0 -5 -7 -9
-15 -9 -9 0 -18 -6 -21 -14 -3 -8 -16 -17 -30 -20 -13 -4 -24 -13 -24 -21 0
-8 -9 -15 -20 -15 -11 0 -20 -7 -20 -15 0 -8 -7 -15 -15 -15 -8 0 -15 -7 -15
-15 0 -8 -7 -15 -15 -15 -8 0 -15 -9 -15 -20 0 -11 -7 -20 -15 -20 -10 0 -15
-10 -15 -30 0 -20 -5 -30 -15 -30 -11 0 -15 -12 -15 -45 0 -33 -4 -45 -15 -45
-13 0 -15 -21 -15 -125 0 -104 2 -125 15 -125 10 0 15 -11 15 -35 0 -24 5 -35
15 -35 10 0 15 -10 15 -30 0 -20 5 -30 15 -30 10 0 15 -10 15 -30 0 -20 5 -30
15 -30 8 0 15 -7 15 -15 0 -8 9 -15 20 -15 11 0 20 -7 20 -15 0 -9 9 -15 24
-15 15 0 26 -7 29 -20 3 -11 12 -20 21 -20 9 0 16 -4 16 -9 0 -5 12 -12 27
-16 15 -3 31 -12 35 -18 10 -17 330 -17 335 0 3 7 20 15 39 19 19 3 34 10 34
14 0 5 14 11 30 15 17 4 30 13 30 21 0 8 7 14 15 14 8 0 15 7 15 15 0 8 7 15
15 15 8 0 15 7 15 15 0 8 6 15 14 15 8 0 17 13 21 29 3 16 13 32 21 35 8 3 14
12 14 21 0 8 7 15 15 15 11 0 15 12 15 45 0 33 4 45 15 45 13 0 15 22 15 140
0 118 -2 140 -15 140 -10 0 -15 11 -15 35 0 23 -5 35 -14 35 -8 0 -17 11 -20
25 -4 14 -11 25 -16 25 -6 0 -10 9 -10 20 0 11 -7 20 -15 20 -8 0 -15 7 -15
15 0 8 -9 15 -20 15 -11 0 -20 7 -20 15 0 8 -7 15 -15 15 -8 0 -15 7 -15 15 0
8 -7 15 -15 15 -8 0 -15 6 -15 14 0 8 -14 18 -32 21 -18 4 -36 12 -40 18 -3 6
-31 12 -62 15 -31 2 -56 8 -56 13 0 5 -36 9 -80 9 -44 0 -80 -4 -80 -9z"/>
<path d="M4350 3435 c0 -8 -7 -15 -15 -15 -12 0 -15 -14 -15 -65 0 -48 -4 -65
-14 -65 -8 0 -15 -16 -19 -41 -3 -23 -10 -45 -15 -48 -6 -3 -14 -19 -17 -34
-4 -15 -11 -27 -16 -27 -5 0 -9 -6 -9 -13 0 -7 -9 -20 -20 -30 -11 -9 -20 -26
-20 -37 0 -11 -7 -20 -15 -20 -8 0 -15 -7 -15 -15 0 -8 -7 -15 -15 -15 -8 0
-15 -7 -15 -15 0 -8 -7 -15 -15 -15 -8 0 -15 -7 -15 -15 0 -8 -7 -15 -15 -15
-8 0 -15 -7 -15 -15 0 -8 -7 -15 -15 -15 -9 0 -18 -6 -21 -14 -3 -8 -16 -17
-30 -20 -13 -4 -24 -11 -24 -16 0 -6 -9 -10 -20 -10 -11 0 -20 -6 -20 -14 0
-8 -13 -17 -30 -21 -16 -4 -30 -13 -30 -21 0 -10 -13 -14 -50 -14 -38 0 -50
-4 -50 -15 0 -12 -13 -15 -60 -15 -47 0 -60 -3 -60 -15 0 -13 -22 -15 -140
-15 -132 0 -140 -1 -140 -19 0 -11 -7 -26 -15 -35 -8 -8 -15 -20 -15 -26 0 -6
-6 -13 -14 -16 -8 -3 -18 -19 -21 -35 -4 -16 -13 -29 -21 -29 -8 0 -14 -7 -14
-15 0 -8 -7 -15 -15 -15 -8 0 -15 -7 -15 -15 0 -8 -7 -15 -15 -15 -10 0 -15
-10 -15 -30 0 -20 -5 -30 -15 -30 -8 0 -15 -7 -15 -15 0 -8 -6 -15 -13 -15
-16 0 -47 -36 -47 -55 0 -8 -7 -15 -15 -15 -8 0 -15 -7 -15 -15 0 -8 -7 -15
-15 -15 -8 0 -15 -7 -15 -15 0 -8 -9 -15 -20 -15 -11 0 -20 -7 -20 -15 0 -8
-7 -15 -15 -15 -8 0 -15 -9 -15 -20 0 -11 -7 -20 -15 -20 -8 0 -15 -7 -15 -15
0 -8 -4 -15 -10 -15 -13 0 -50 -37 -50 -50 0 -5 -7 -10 -15 -10 -8 0 -15 -7
-15 -15 0 -8 -9 -15 -20 -15 -11 0 -20 -7 -20 -15 0 -8 -7 -15 -15 -15 -8 0
-15 -7 -15 -15 0 -8 -7 -15 -15 -15 -8 0 -15 -6 -15 -14 0 -8 -13 -17 -30 -21
-16 -4 -30 -13 -30 -21 0 -8 -7 -14 -15 -14 -8 0 -15 -4 -15 -9 0 -5 -9 -11
-20 -14 -11 -3 -20 -12 -20 -21 0 -11 -9 -16 -30 -16 -20 0 -30 -5 -30 -15 0
-8 -7 -15 -15 -15 -8 0 -15 -7 -15 -15 0 -10 -10 -15 -30 -15 -20 0 -30 -5
-30 -15 0 -8 -9 -15 -20 -15 -11 0 -20 -7 -20 -15 0 -8 -6 -15 -14 -15 -8 0
-21 -6 -28 -14 -8 -7 -29 -17 -46 -21 -18 -3 -32 -10 -32 -15 0 -5 -13 -11
-30 -15 -17 -4 -30 -10 -30 -15 0 -5 -13 -11 -30 -15 -17 -4 -30 -13 -30 -21
0 -9 -11 -14 -30 -14 -20 0 -30 -5 -30 -15 0 -10 -11 -15 -35 -15 -24 0 -35
-5 -35 -15 0 -11 -12 -15 -45 -15 -33 0 -45 -4 -45 -15 0 -8 -14 -17 -35 -21
-19 -3 -35 -10 -35 -15 0 -5 -13 -9 -30 -9 -16 0 -30 4 -30 9 0 5 -14 12 -30
16 -17 4 -30 13 -30 21 0 9 -11 14 -30 14 -20 0 -30 5 -30 15 0 8 -9 15 -20
15 -11 0 -20 7 -20 15 0 8 -7 15 -15 15 -8 0 -15 6 -15 14 0 8 -14 17 -30 21
-17 4 -30 13 -30 21 0 8 -7 14 -15 14 -8 0 -15 7 -15 15 0 8 -4 15 -10 15 -13
0 -50 37 -50 50 0 6 -6 10 -14 10 -8 0 -17 14 -21 30 -4 17 -13 30 -21 30 -8
0 -14 7 -14 15 0 8 -7 15 -15 15 -8 0 -15 9 -15 20 0 11 -7 20 -15 20 -10 0
-15 10 -15 30 0 20 -5 30 -15 30 -10 0 -15 10 -15 30 0 19 -5 30 -14 30 -14 0
-26 29 -26 68 0 12 -4 22 -9 22 -6 0 -13 21 -17 48 -4 26 -12 50 -18 54 -17
11 -15 400 2 405 6 3 12 18 12 34 0 26 -4 29 -30 29 -20 0 -30 5 -30 15 0 11
-12 15 -45 15 -33 0 -45 4 -45 15 0 10 -10 15 -29 15 -25 0 -31 -5 -36 -30 -4
-16 -10 -30 -15 -30 -4 0 -11 -16 -14 -35 -4 -19 -11 -35 -16 -35 -4 0 -11
-13 -15 -30 -4 -16 -13 -30 -21 -30 -9 0 -14 -11 -14 -30 0 -20 -5 -30 -15
-30 -11 0 -15 -12 -15 -45 0 -33 -4 -45 -15 -45 -10 0 -15 -10 -15 -30 0 -19
-5 -30 -14 -30 -8 0 -17 -15 -20 -35 -4 -19 -11 -35 -16 -35 -4 0 -11 -13 -15
-30 -4 -17 -10 -30 -14 -30 -5 0 -11 -19 -14 -42 -3 -24 -10 -44 -16 -46 -6
-2 -13 -26 -17 -53 -4 -32 -11 -49 -20 -49 -10 0 -14 -14 -14 -45 0 -33 -4
-45 -15 -45 -12 0 -15 -14 -15 -65 0 -51 -3 -65 -15 -65 -13 0 -15 -21 -15
-125 0 -104 -2 -125 -15 -125 -13 0 -15 -23 -15 -145 0 -122 2 -145 15 -145
12 0 15 -18 15 -105 0 -87 3 -105 15 -105 11 0 15 -12 15 -50 0 -38 4 -50 15
-50 11 0 15 -12 15 -45 0 -32 4 -45 14 -45 8 0 17 -14 21 -30 4 -17 11 -30 16
-30 5 0 9 -7 9 -15 0 -9 6 -18 14 -21 8 -3 18 -19 21 -35 4 -16 11 -29 16 -29
5 0 9 -7 9 -15 0 -8 9 -15 20 -15 11 0 20 -7 20 -15 0 -8 7 -15 15 -15 10 0
15 -10 15 -29 0 -22 6 -30 25 -35 26 -7 95 -69 95 -86 0 -6 9 -10 20 -10 11 0
20 -7 20 -15 0 -10 10 -15 30 -15 20 0 30 -5 30 -15 0 -10 10 -15 30 -15 19 0
30 -5 30 -14 0 -8 14 -17 30 -21 16 -4 30 -10 30 -15 0 -5 15 -12 32 -15 18
-4 36 -12 39 -17 3 -5 23 -11 45 -15 21 -3 42 -10 45 -15 3 -4 47 -11 97 -14
67 -5 92 -11 92 -20 0 -11 27 -14 125 -14 98 0 125 3 125 14 0 9 24 15 92 19
50 3 94 10 97 15 3 5 33 12 65 15 33 3 62 10 65 15 3 5 31 13 61 17 30 4 58
12 61 17 3 5 25 12 48 15 25 4 41 11 41 19 0 9 12 14 35 14 24 0 35 5 35 15 0
11 12 15 45 15 33 0 45 4 45 15 0 10 11 15 35 15 23 0 35 5 35 14 0 8 12 17
27 21 15 3 31 11 34 17 3 5 25 12 48 15 22 3 41 9 41 14 0 4 14 10 30 14 17 4
30 10 30 15 0 5 14 11 30 15 17 4 30 13 30 21 0 9 11 14 35 14 24 0 35 5 35
15 0 10 10 15 30 15 20 0 30 5 30 15 0 10 10 15 30 15 20 0 30 5 30 15 0 10
11 15 35 15 24 0 35 5 35 14 0 8 14 17 30 21 17 4 30 10 30 15 0 5 14 11 30
15 17 4 30 10 30 15 0 5 14 11 30 15 17 4 30 13 30 21 0 9 11 14 35 14 24 0
35 5 35 15 0 10 10 15 30 15 20 0 30 5 30 15 0 10 11 15 35 15 24 0 35 5 35
15 0 10 10 15 30 15 19 0 30 5 30 14 0 8 14 17 30 21 17 4 30 10 30 14 0 5 19
11 42 14 24 3 44 10 46 16 2 6 19 13 38 17 19 3 34 12 34 20 0 9 11 14 30 14
20 0 30 5 30 15 0 11 12 15 45 15 33 0 45 4 45 15 0 11 12 15 50 15 38 0 50 4
50 15 0 10 10 15 30 15 19 0 30 5 30 14 0 10 19 16 60 21 33 4 60 11 60 16 0
4 23 11 50 15 28 4 50 10 50 14 0 5 28 11 63 15 34 4 65 11 68 16 3 5 40 12
82 15 55 5 77 11 77 20 0 11 21 14 90 14 73 0 90 3 90 15 0 12 19 15 110 15
91 0 110 3 110 15 0 12 17 15 95 15 74 0 95 3 95 14 0 9 20 16 65 21 36 3 65
10 65 15 0 4 27 11 60 15 33 4 60 11 60 15 0 5 20 12 45 16 25 3 45 10 45 15
0 4 16 11 35 15 20 3 35 12 35 20 0 9 11 14 30 14 20 0 30 5 30 15 0 8 9 15
20 15 11 0 20 7 20 15 0 9 9 15 25 15 16 0 25 6 25 15 0 8 7 15 15 15 9 0 18
7 21 15 4 8 12 15 20 15 8 0 14 7 14 15 0 8 7 15 15 15 8 0 15 7 15 15 0 8 7
15 15 15 8 0 15 9 15 20 0 11 7 20 15 20 8 0 15 7 15 15 0 8 9 15 20 15 11 0
20 7 20 15 0 8 5 15 10 15 6 0 10 7 10 15 0 8 6 15 14 15 8 0 17 15 20 35 4
21 13 35 21 35 10 0 15 10 15 30 0 20 5 30 15 30 10 0 15 10 15 30 0 20 5 30
15 30 11 0 15 12 15 50 0 38 4 50 15 50 13 0 15 34 15 245 0 211 -2 245 -15
245 -11 0 -15 12 -15 50 0 38 -4 50 -15 50 -10 0 -15 11 -15 35 0 33 -2 35
-34 35 -19 0 -41 -7 -50 -15 -8 -8 -29 -18 -45 -21 -17 -4 -31 -13 -31 -20 0
-10 -13 -14 -45 -14 -33 0 -45 -4 -45 -15 0 -12 -14 -15 -65 -15 -51 0 -65 -3
-65 -15 0 -12 -18 -15 -105 -15 -87 0 -105 3 -105 15 0 12 -14 15 -70 15 -56
0 -70 3 -70 15 0 11 -11 15 -40 15 -27 0 -40 4 -40 14 0 8 -15 17 -35 20 -19
4 -35 11 -35 16 0 4 -13 11 -30 15 -16 4 -30 13 -30 21 0 8 -7 14 -15 14 -19
0 -55 31 -55 47 0 7 -7 13 -15 13 -8 0 -15 7 -15 15 0 8 -7 15 -15 15 -8 0
-15 7 -15 15 0 8 -7 15 -15 15 -8 0 -15 7 -15 15 0 8 -7 15 -15 15 -8 0 -15 9
-15 20 0 11 -7 20 -15 20 -9 0 -15 9 -15 25 0 16 -6 25 -15 25 -9 0 -19 8 -22
18 -4 9 -10 20 -15 23 -5 3 -11 23 -15 45 -3 21 -10 42 -15 45 -5 3 -12 25
-15 48 -4 25 -11 41 -19 41 -10 0 -14 14 -14 50 l0 50 -250 0 c-216 0 -250 -2
-250 -15z"/>
</g>
</svg>
