<?xml version="1.0" standalone="no"?>
<!DOCTYPE svg PUBLIC "-//W3C//DTD SVG 20010904//EN"
 "http://www.w3.org/TR/2001/REC-SVG-20010904/DTD/svg10.dtd">
<svg version="1.0" xmlns="http://www.w3.org/2000/svg"
 width="700.000000pt" height="700.000000pt" viewBox="0 0 700.000000 700.000000"
 preserveAspectRatio="xMidYMid meet">
<metadata>
Created by potrace 1.11, written by Peter Selinger 2001-2013
</metadata>
<g transform="translate(0.000000,700.000000) scale(0.100000,-0.100000)"
fill="#000000" stroke="none">
<path d="M2960 6224 c0 -3 152 -453 337 -1000 l337 -994 35 -10 c20 -5 41 -10
47 -10 6 0 161 304 345 675 184 371 336 675 339 675 3 0 154 -303 335 -672
180 -370 331 -676 334 -680 3 -4 25 -2 48 5 l43 11 39 116 c167 494 631 1858
636 1873 7 16 -66 17 -1434 17 -793 0 -1441 -2 -1441 -6z"/>
<path d="M3410 3959 c-119 -23 -237 -118 -293 -236 -30 -64 -32 -75 -32 -178
0 -105 2 -114 33 -178 83 -169 256 -261 442 -236 189 26 343 190 357 381 21
283 -227 502 -507 447z"/>
<path d="M5246 3960 c-118 -21 -241 -113 -297 -222 -119 -235 3 -521 255 -593
85 -25 212 -17 289 18 188 85 288 307 228 505 -61 201 -267 328 -475 292z"/>
<path d="M1538 3945 c-77 -25 -167 -93 -215 -163 -53 -78 -73 -144 -73 -243 0
-344 391 -539 669 -335 210 155 227 470 34 646 -85 78 -149 103 -268 107 -69
2 -115 -2 -147 -12z"/>
<path d="M4215 3451 c-25 -5 -31 -12 -36 -46 -31 -177 -170 -369 -335 -461
-111 -62 -202 -87 -334 -90 l-115 -2 -60 -85 c-301 -423 -683 -728 -1137 -907
l-107 -42 -69 41 c-239 139 -388 332 -447 576 -21 87 -22 277 -2 357 l14 57
-66 15 c-36 8 -76 18 -89 22 -20 6 -28 -6 -98 -152 -194 -407 -253 -592 -274
-865 -37 -495 134 -832 514 -1009 141 -67 227 -84 411 -85 178 0 277 17 477
81 201 65 310 113 893 397 637 309 812 367 1369 452 399 61 560 109 716 215
163 111 271 257 332 450 20 65 23 95 23 230 0 159 -10 213 -60 333 l-16 38
-62 -35 c-179 -99 -403 -112 -595 -36 -199 80 -358 260 -413 466 -21 81 -22
82 -58 88 -47 8 -337 6 -376 -3z"/>
</g>
</svg>
