<svg width="72" height="91" viewBox="0 0 72 91" fill="none" xmlns="http://www.w3.org/2000/svg"><path fill-rule="evenodd" clip-rule="evenodd" d="M72 4.883c-4.27 5.37-8.469 10.7-12.595 15.99a1266.69 1266.69 0 00-12.226 15.93 796.562 796.562 0 016.528 13.519c2.218 4.7 4.497 9.694 6.837 14.983l-1.786 1.465.123 1.282a8.916 8.916 0 01-2.648 1.831l.677 2.014a6.033 6.033 0 01-1.724 1.983 5.718 5.718 0 01-2.28 1.007c-.861-.04-2.699-2.044-5.512-6.011-2.812-3.968-6.538-9.796-11.178-17.486a393.763 393.763 0 00-12.78 18.493 401.79 401.79 0 00-11.98 19.652 13.88 13.88 0 01-3.08 1.099A14.876 14.876 0 015.05 91h-.739c-1.19-1.099-2.145-2.268-2.864-3.51C.73 86.25.37 85.264.37 84.53c0-.406.061-.895.184-1.464.124-.57.308-1.282.555-2.136L0 78.915c1.478-3.702 4.609-8.92 9.393-15.654 4.783-6.734 11.281-15.147 19.493-25.238a643.104 643.104 0 01-4.958-13.488c-1.663-4.679-3.5-10.01-5.512-15.99.534-1.14 1.108-2.055 1.724-2.747.616-.692 1.17-1.037 1.663-1.037.329 0 .657.091.986.274.328.183.677.478 1.047.885.246-.244.534-.437.862-.58a2.604 2.604 0 011.047-.213h.493c.287-.407.595-.753.924-1.038a7.57 7.57 0 011.108-.793h.123c1.191 0 3.45 3.499 6.776 10.497 2.012 4.232 3.695 7.69 5.05 10.376 2.423-2.767 5.543-6.408 9.362-10.925C56.89 4.618 60.914.305 61.653.305c.451 0 1.037.193 1.755.58.719.387 1.57.966 2.556 1.74L68.736 0a17.926 17.926 0 011.817 2.258A16.237 16.237 0 0172 4.883z" fill="#fff"/></svg>