<?xml version="1.0" encoding="utf-8"?>
<!-- Generator: Adobe Illustrator 17.1.0, SVG Export Plug-In . SVG Version: 6.00 Build 0)  -->
<!DOCTYPE svg PUBLIC "-//W3C//DTD SVG 1.0//EN" "http://www.w3.org/TR/2001/REC-SVG-20010904/DTD/svg10.dtd">
<svg version="1.0" id="Layer_1" xmlns="http://www.w3.org/2000/svg" xmlns:xlink="http://www.w3.org/1999/xlink" x="0px" y="0px"
	 viewBox="0 0 1024 768" enable-background="new 0 0 1024 768" xml:space="preserve">
<path fill="#C63D15" stroke="#FFFFFF" stroke-width="20" d="M333.343,379.191c-8.238,31.351-25.963,58.655-48.511,79.928
	c-16.963,16.003-36.377,28.138-57.375,35.615c-24.999-12.842-36.805-41.404-26.152-66.447c8.449-19.863,18.28-41.74,0.13-46.745
	c-13.213-3.644-20.468,9.013-25.547,22.545c-9.73,25.923-28.219,52.748-33.488,84.521c-5.562,33.542-0.018,69.147,28.992,89.253
	c67.562,46.826,140.9-29.028,218.225-48.096c28.024-6.911,58.785-5.797,83.475-20.097c18.541-10.739,30.764-28.535,34.233-48.516
	c5.58-32.137-11.139-64.066-41.934-80.05"/>
<path fill="none" stroke="#FFFFFF" stroke-width="20" d="M333.343,379.191c-8.238,31.351-25.963,58.655-48.511,79.928
	c-16.963,16.003-36.377,28.138-57.376,35.615c-24.999-12.842-36.805-41.404-26.152-66.447c8.449-19.863,18.28-41.74,0.13-46.745
	c-13.213-3.644-20.468,9.013-25.547,22.545c-9.73,25.923-28.219,52.748-33.488,84.521c-5.562,33.542-0.018,69.147,28.992,89.253
	c67.562,46.826,140.9-29.028,218.226-48.096c28.024-6.911,58.785-5.797,83.475-20.097c18.541-10.739,30.764-28.535,34.233-48.515
	c5.58-32.137-11.139-64.066-41.934-80.05"/>
<polygon fill="#C63D15" points="395.364,254.17 449.685,364.982 514.778,173 275.789,173 340.732,364.641 "/>
<polygon fill="none" stroke="#FFFFFF" stroke-width="20" points="395.364,254.17 449.685,364.982 514.777,173 275.789,173 
	340.732,364.641 "/>
<circle fill="#C63D15" cx="329.46" cy="379.583" r="40.945"/>
<circle fill="none" stroke="#FFFFFF" stroke-width="20" cx="329.46" cy="379.583" r="40.945"/>
<circle fill="#C63D15" stroke="#FFFFFF" stroke-width="20" cx="462.844" cy="379.583" r="40.945"/>
<circle fill="none" stroke="#FFFFFF" stroke-width="20" cx="462.844" cy="379.583" r="40.945"/>
<circle fill="#C63D15" cx="195.571" cy="379.877" r="40.945"/>
<circle fill="none" stroke="#FFFFFF" stroke-width="20" cx="195.571" cy="379.877" r="40.945"/>
</svg>
