<svg width="80" height="80" viewBox="0 0 80 80" fill="none" xmlns="http://www.w3.org/2000/svg"><path fill-rule="evenodd" clip-rule="evenodd" d="M80 1.913A433.66 433.66 0 0052.098 34.59 399.123 399.123 0 0028.16 69.235c-.537.874-1.207 2.095-2.012 3.661C23.66 77.632 20.115 80 15.517 80c-1.954 0-3.563-.273-4.827-.82-1.265-.546-2.433-1.493-3.506-2.841-.881-1.166-1.705-2.687-2.471-4.563-.767-1.876-1.667-4.636-2.702-8.279a8.123 8.123 0 01-.23-.82C.595 58.635 0 56.103 0 55.083c0-2.077 1.274-3.98 3.822-5.71s5.067-2.596 7.557-2.596c.805 0 1.456.228 1.954.683.498.455 1.073 1.43 1.724 2.923.384.911.862 2.15 1.437 3.716 1.303 3.498 2.395 5.246 3.276 5.246.766 0 3.793-3.989 9.08-11.967 5.058-7.614 9.407-14.007 13.047-19.18 5.095-7.25 8.975-12.487 11.638-15.71 2.662-3.225 5.067-5.675 7.212-7.35 1.877-1.458 4.291-2.605 7.242-3.443C70.939.856 74.674.291 79.195 0L80 1.913z" fill="#fff"/></svg>