<svg viewBox="0 0 1024 768" xmlns="http://www.w3.org/2000/svg"><path stroke="#FFF" stroke-width="20" d="M465.391 381.102c-.54.328-18.349-2.66-40.665-4.171-18.225-1.235-39.456-1.188-56.744-.017-14.019.949-32.438-6.098-34.639 2.277-8.238 31.351-25.963 58.655-48.511 79.928-16.963 16.003-36.377 28.138-57.375 35.615-24.999-12.842-36.805-41.404-26.152-66.447 8.449-19.863 18.28-41.74.13-46.745-13.213-3.644-20.468 9.013-25.547 22.545-9.73 25.923-28.219 52.748-33.488 84.521-5.562 33.542-.018 69.147 28.992 89.253 67.562 46.826 140.9-29.028 218.225-48.096 28.024-6.911 58.785-5.797 83.475-20.097 18.541-10.739 30.764-28.535 34.233-48.516 5.58-32.137-11.139-64.066-41.934-80.05z" fill="#c21325"/><path fill="none" stroke="#FFF" stroke-width="20" d="M333.343 379.191c-8.238 31.351-25.963 58.655-48.511 79.928-16.963 16.003-36.377 28.138-57.376 35.615-24.999-12.842-36.805-41.404-26.152-66.447 8.449-19.863 18.28-41.74.13-46.745-13.213-3.644-20.468 9.013-25.547 22.545-9.73 25.923-28.219 52.748-33.488 84.521-5.562 33.542-.018 69.147 28.992 89.253 67.562 46.826 140.9-29.028 218.226-48.096 28.024-6.911 58.785-5.797 83.475-20.097 18.541-10.739 30.764-28.535 34.233-48.515 5.58-32.137-11.139-64.066-41.934-80.05"/><path fill="#c21325" d="M395.364 254.17l54.321 110.812L514.778 173H275.789l64.943 191.641z"/><path fill="none" stroke="#FFF" stroke-width="20" d="M395.364 254.17l54.321 110.812L514.777 173H275.789l64.943 191.641z"/><circle cx="329.46" cy="379.583" r="40.945" fill="#c21325"/><circle fill="none" stroke="#FFF" stroke-width="20" cx="329.46" cy="379.583" r="40.945"/><circle stroke="#FFF" stroke-width="20" cx="462.844" cy="379.583" r="40.945" fill="#c21325"/><circle fill="none" stroke="#FFF" cx="462.844" cy="379.583" r="40.945" stroke-width="20"/><circle cx="195.571" cy="379.877" r="40.945" fill="#c21325"/><circle fill="none" stroke="#FFF" stroke-width="20" cx="195.571" cy="379.877" r="40.945"/></svg>